<svg width="600" height="591" viewBox="0 0 600 591" fill="none" xmlns="http://www.w3.org/2000/svg">
<path d="M52 475.968V477.968H54H545.021H547.021V475.968V245.422V243.422H545.021H377.279V180.338V178.338H375.279H225.415H223.415V180.338V243.422H54H52V245.422V475.968Z" fill="#F7CB45" stroke="black" stroke-width="4"/>
<path d="M354.325 386.873V477.664L242.648 477.665V386.873H251.731H253.731V384.873V365.229C253.735 365.219 253.739 365.208 253.744 365.197C253.842 364.95 253.994 364.581 254.199 364.101C254.611 363.142 255.239 361.745 256.097 360.018C257.815 356.564 260.449 351.8 264.104 346.589C271.306 336.321 282.399 324.418 298.157 317.291C298.396 317.419 298.696 317.588 299.055 317.799C300.081 318.406 301.511 319.319 303.233 320.515C306.676 322.906 311.237 326.396 316.012 330.765C325.586 339.523 335.807 351.621 339.83 365.318C339.836 365.423 339.843 365.579 339.85 365.791C339.866 366.317 339.876 367.082 339.882 368.018C339.894 369.885 339.886 372.375 339.871 374.872C339.855 377.368 339.832 379.862 339.812 381.732C339.803 382.668 339.794 383.447 339.788 383.992L339.78 384.625L339.778 384.791L339.778 384.834L339.778 384.845L339.778 384.847L339.778 384.848C339.778 384.848 339.778 384.848 341.778 384.873L339.778 384.848L339.753 386.873H341.778H354.325ZM297.647 317.039C297.593 317.022 297.584 317.014 297.636 317.034C297.639 317.035 297.643 317.037 297.647 317.039Z" fill="#EBB923" stroke="black" stroke-width="4"/>
<path d="M332.375 399.611H345.318V477.665L252.807 477.663V399.609H262.786H264.786V397.609V380.557C264.787 380.554 264.787 380.552 264.788 380.55C264.838 380.378 264.917 380.117 265.028 379.775C265.251 379.091 265.605 378.085 266.117 376.832C267.143 374.325 268.803 370.837 271.324 366.963C276.275 359.357 284.534 350.278 297.851 344.166C298.009 344.238 298.196 344.327 298.413 344.434C299.203 344.826 300.307 345.425 301.641 346.231C304.307 347.843 307.843 350.251 311.561 353.415C319 359.744 327.013 368.962 330.422 380.726C330.427 380.813 330.432 380.937 330.437 381.102C330.451 381.555 330.459 382.214 330.464 383.024C330.474 384.638 330.468 386.793 330.455 388.954C330.441 391.113 330.422 393.272 330.405 394.891C330.397 395.7 330.39 396.374 330.384 396.846L330.378 397.394L330.376 397.538L330.376 397.575L330.376 397.584L330.376 397.586L330.376 397.587C330.376 397.587 330.376 397.587 332.375 397.611L330.376 397.587L330.351 399.611H332.375ZM297.363 343.963C297.328 343.954 297.322 343.949 297.352 343.959C297.354 343.96 297.358 343.961 297.363 343.963Z" fill="#F8F5F1" stroke="black" stroke-width="4"/>
<path d="M156.901 402.105H167.301V478.418H72.7035V402.105H80.1484H82.1484V400.105V383.525C82.2317 383.319 82.3559 383.018 82.5222 382.633C82.8708 381.825 83.404 380.646 84.133 379.189C85.5918 376.274 87.8298 372.251 90.9347 367.851C97.0349 359.207 106.411 349.203 119.707 343.187C119.884 343.283 120.094 343.402 120.338 343.545C121.205 344.054 122.418 344.824 123.881 345.834C126.806 347.854 130.683 350.802 134.743 354.494C142.88 361.894 151.534 372.085 154.948 383.593C154.953 383.676 154.958 383.794 154.963 383.95C154.976 384.392 154.985 385.036 154.99 385.829C155 387.408 154.993 389.517 154.98 391.632C154.967 393.745 154.947 395.857 154.931 397.442C154.923 398.234 154.915 398.894 154.91 399.356L154.904 399.891L154.902 400.032L154.902 400.069L154.901 400.078L154.901 400.08L154.901 400.08C154.901 400.081 154.901 400.081 156.901 400.105L154.901 400.081L154.876 402.105H156.901ZM119.186 342.923C119.138 342.908 119.128 342.9 119.171 342.917C119.174 342.918 119.179 342.92 119.186 342.923Z" fill="#EBB923" stroke="black" stroke-width="4"/>
<path d="M513.947 401.352H524.347V477.664H429.749V401.352H437.194H439.194V399.352V382.771C439.277 382.565 439.402 382.264 439.568 381.879C439.917 381.071 440.45 379.893 441.179 378.436C442.638 375.52 444.876 371.498 447.98 367.098C454.081 358.453 463.457 348.449 476.753 342.433C476.93 342.529 477.14 342.648 477.384 342.791C478.251 343.301 479.464 344.07 480.927 345.08C483.852 347.1 487.729 350.049 491.788 353.74C499.926 361.14 508.58 371.331 511.994 382.839C511.999 382.923 512.004 383.04 512.008 383.196C512.022 383.638 512.031 384.283 512.036 385.075C512.046 386.655 512.039 388.763 512.026 390.878C512.013 392.991 511.993 395.104 511.977 396.688C511.969 397.48 511.961 398.14 511.956 398.602L511.95 399.138L511.948 399.279L511.947 399.315L511.947 399.324L511.947 399.326L511.947 399.327C511.947 399.327 511.947 399.327 513.947 399.352L511.947 399.327L511.922 401.352H513.947ZM476.232 342.17C476.183 342.154 476.174 342.147 476.217 342.163C476.219 342.164 476.225 342.166 476.232 342.17Z" fill="#EBB923" stroke="black" stroke-width="4"/>
<path d="M135.741 440.423H139.466V478.661H97.9464V440.423H100.305H102.305V438.423V429.844C102.337 429.756 102.377 429.649 102.424 429.525C102.58 429.112 102.82 428.507 103.15 427.756C103.811 426.252 104.825 424.176 106.231 421.906C108.91 417.582 112.926 412.693 118.504 409.628C118.847 409.868 119.281 410.189 119.786 410.587C121.102 411.622 122.856 413.141 124.695 415.045C128.374 418.856 132.231 424.046 133.767 429.859C133.768 429.884 133.769 429.914 133.77 429.948C133.776 430.171 133.78 430.503 133.783 430.919C133.787 431.745 133.784 432.85 133.778 433.962C133.772 435.072 133.763 436.182 133.755 437.014C133.751 437.431 133.748 437.778 133.746 438.02L133.743 438.302L133.742 438.376L133.742 438.395L133.742 438.399L133.742 438.4L133.742 438.401L135.741 438.423L133.742 438.401L133.719 440.423H135.741ZM133.762 429.746C133.762 429.747 133.762 429.747 133.762 429.747L133.762 429.746Z" fill="#F8F5F1" stroke="black" stroke-width="4"/>
<path d="M492.787 439.423H496.512V477.661H454.992V439.423H457.351H459.351V437.423V428.844C459.383 428.756 459.422 428.649 459.47 428.525C459.626 428.112 459.866 427.507 460.196 426.756C460.857 425.252 461.871 423.176 463.277 420.906C465.956 416.582 469.972 411.693 475.55 408.628C475.893 408.868 476.327 409.189 476.832 409.587C478.148 410.622 479.902 412.141 481.741 414.045C485.419 417.856 489.277 423.046 490.813 428.859C490.814 428.884 490.815 428.914 490.816 428.948C490.822 429.171 490.826 429.503 490.828 429.919C490.833 430.745 490.83 431.85 490.824 432.962C490.818 434.072 490.809 435.182 490.801 436.014C490.797 436.431 490.794 436.778 490.791 437.02L490.788 437.302L490.788 437.376L490.787 437.395L490.787 437.399L490.787 437.4L490.787 437.401L492.787 437.423L490.787 437.401L490.765 439.423H492.787ZM490.808 428.746C490.808 428.747 490.808 428.747 490.808 428.747L490.808 428.746Z" fill="#F8F5F1" stroke="black" stroke-width="4"/>
<path d="M230.59 275.851H239.892V295.647H230.59V275.851Z" fill="#F8F5F1" stroke="black" stroke-width="2"/>
<path d="M248.35 275.851H260.88V295.647H248.35V275.851Z" fill="#F8F5F1" stroke="black" stroke-width="2"/>
<path d="M268.532 275.851H279.448V295.647H268.532V275.851Z" fill="#F8F5F1" stroke="black" stroke-width="2"/>
<path d="M287.099 275.851H298.822V295.647H287.099V275.851Z" fill="#F8F5F1" stroke="black" stroke-width="2"/>
<path d="M306.472 275.851H315.774V295.647H306.472V275.851Z" fill="#F8F5F1" stroke="black" stroke-width="2"/>
<path d="M325.039 275.851H335.148V295.647H325.039V275.851Z" fill="#F8F5F1" stroke="black" stroke-width="2"/>
<path d="M343.606 275.851H354.522V295.647H343.606V275.851Z" fill="#F8F5F1" stroke="black" stroke-width="2"/>
<path d="M362.981 275.851H369.053V295.647H362.981V275.851Z" fill="#F8F5F1" stroke="black" stroke-width="2"/>
<path d="M416.259 314.6H427.175V326.323H416.259V314.6Z" fill="#F8F5F1" stroke="black" stroke-width="2"/>
<path d="M436.44 314.6H445.742V326.323H436.44V314.6Z" fill="#F8F5F1" stroke="black" stroke-width="2"/>
<path d="M455.007 314.6H465.116V326.323H455.007V314.6Z" fill="#F8F5F1" stroke="black" stroke-width="2"/>
<path d="M473.574 314.6H484.49V326.323H473.574V314.6Z" fill="#F8F5F1" stroke="black" stroke-width="2"/>
<path d="M492.948 314.6H503.057V326.323H492.948V314.6Z" fill="#F8F5F1" stroke="black" stroke-width="2"/>
<path d="M512.322 314.6H522.431V326.323H512.322V314.6Z" fill="#F8F5F1" stroke="black" stroke-width="2"/>
<path d="M530.889 314.6H541.805V326.323H530.889V314.6Z" fill="#F8F5F1" stroke="black" stroke-width="2"/>
<path d="M59.4534 314.6H70.3695V326.323H59.4534V314.6Z" fill="#F8F5F1" stroke="black" stroke-width="2"/>
<path d="M78.8275 314.6H89.7436V326.323H78.8275V314.6Z" fill="#F8F5F1" stroke="black" stroke-width="2"/>
<path d="M97.3943 314.6H108.31V326.323H97.3943V314.6Z" fill="#F8F5F1" stroke="black" stroke-width="2"/>
<path d="M116.768 314.6H126.07V326.323H116.768V314.6Z" fill="#F8F5F1" stroke="black" stroke-width="2"/>
<path d="M135.335 314.6H146.251V326.323H135.335V314.6Z" fill="#F8F5F1" stroke="black" stroke-width="2"/>
<path d="M153.902 314.6H164.818V326.323H153.902V314.6Z" fill="#F8F5F1" stroke="black" stroke-width="2"/>
<path d="M174.083 314.6H181.77V326.323H174.083V314.6Z" fill="#F8F5F1" stroke="black" stroke-width="2"/>
<path d="M56 261.669H543.403V275.848H56V261.669Z" fill="#EBB923" stroke="black" stroke-width="2"/>
<path d="M224.217 192.338H373.676V197.333H224.217V192.338Z" fill="#F8F5F1" stroke="black" stroke-width="2"/>
<path d="M224.217 220.775H373.676V225.771H224.217V220.775Z" fill="#F8F5F1" stroke="black" stroke-width="2"/>
<path d="M55.0007 329.269H183.067" stroke="#193566" stroke-width="0.807253"/>
<path d="M415.206 329.269H543.273" stroke="#193566" stroke-width="0.807253"/>
<path d="M365.422 476.386V478.386L367.422 478.386L419.071 478.388L421.071 478.388V476.388V442.887V440.887H419.112V237.546V235.546H417.112H414.227V147.631V130.517V129.584L413.513 128.984L394.331 112.896L394.323 112.889L394.214 112.798L392.886 111.697L391.602 112.849L373.557 129.028L372.893 129.624V130.517V235.546H370.533H368.533V237.546V440.885H367.422H365.422V442.885V476.386ZM179 476.386V478.386L181 478.386L232.646 478.388L234.646 478.388V476.388V442.887V440.887H232.686V237.546V235.546H230.686H227.803V147.631V130.517V129.584L227.088 128.984L207.903 112.896L207.903 112.896L207.895 112.889L207.786 112.799L206.458 111.697L205.174 112.849L187.135 129.028L186.47 129.624V130.517V235.546H184.111H182.111V237.546V440.885H181H179V442.885V476.386Z" fill="#EBB923" stroke="black" stroke-width="4"/>
</svg>
