<svg xmlns="http://www.w3.org/2000/svg" width="193.474" height="95.865" viewBox="0 0 193.474 95.865">
  <g id="Rickshaw_with_road_marks" data-name="Rickshaw with road marks" transform="translate(1)">
    <line id="Line_1" data-name="Line 1" x1="63" transform="translate(119 91.865)" fill="none" stroke="#193566" stroke-linecap="round" stroke-width="2"/>
    <line id="Line_2" data-name="Line 2" x1="35" transform="translate(101 85.865)" fill="none" stroke="#193566" stroke-linecap="round" stroke-width="2"/>
    <line id="Line_3" data-name="Line 3" x1="50" transform="translate(28 85.865)" fill="none" stroke="#193566" stroke-linecap="round" stroke-width="2"/>
    <line id="Line_4" data-name="Line 4" x1="52" transform="translate(60 94.865)" fill="none" stroke="#193566" stroke-linecap="round" stroke-width="2"/>
    <line id="Line_5" data-name="Line 5" x1="40" transform="translate(7 94.865)" fill="none" stroke="#193566" stroke-linecap="round" stroke-width="2"/>
    <line id="Line_6" data-name="Line 6" x1="18" transform="translate(0 85.865)" fill="none" stroke="#193566" stroke-linecap="round" stroke-width="2"/>
    <g id="cycle-rickshaw" transform="translate(72.117)">
      <path id="Path_139" data-name="Path 139" d="M141.1,61.043a1.71,1.71,0,0,1,1.71-1.71h5.311a1.71,1.71,0,0,1,1.628,1.187l3.1,9.645,1.675,4.468H141.1V61.043Z" transform="translate(-68.289 -59.333)" fill="#d1d9e6"/>
      <path id="Path_140" data-name="Path 140" d="M258.159,216.676a1.491,1.491,0,0,1,1.49,1.49v23.48h-6.367l-.961-4.236V216.676Z" transform="translate(-200.323 -178.618)" fill="#97a7c3"/>
      <path id="Path_141" data-name="Path 141" d="M189.662,302.4h9.414a1.284,1.284,0,0,1,1.284,1.284v4.542a1.284,1.284,0,0,1-1.284,1.284H187.46v-5.4Z" transform="translate(-125.346 -243.605)" fill="#97a7c3"/>
      <path id="Path_142" data-name="Path 142" d="M224.02,302.4v18.518h14.174V304.252a1.856,1.856,0,0,0-1.855-1.855Z" transform="translate(-172.023 -243.605)" fill="#80d261"/>
      <g id="Group_93" data-name="Group 93" transform="translate(50.182 13.816)">
        <path id="Path_143" data-name="Path 143" d="M276.937,181.76a1.814,1.814,0,0,0,1.814-1.814v-61.68a1.814,1.814,0,1,0-3.628,0v61.68A1.814,1.814,0,0,0,276.937,181.76Z" transform="translate(-275.123 -116.452)" fill="#d1d9e6"/>
      </g>
      <path id="Path_144" data-name="Path 144" d="M330.335,151.262a.018.018,0,0,0,.006.013l7.276,7.276a12.156,12.156,0,0,1,3.56,8.6v18.484h-19.6V123.952h9.022Z" transform="translate(-298.602 -108.322)" fill="#d1d9e6"/>
      <path id="Path_145" data-name="Path 145" d="M355.614,246.042h19.493l5.89,4.137,6.9,6.9a3.452,3.452,0,0,1,.506.639l-8.1,4.43H356.09l-2.52-4.43v-7.542Z" transform="translate(-353.57 -200.881)" fill="#97da7b"/>
      <path id="Path_146" data-name="Path 146" d="M386.155,294.327a3.575,3.575,0,0,1,.544,1.9v14.544l-8.625,4.829H353.823l-2.5-4.829v-16.44Z" transform="translate(-351.32 -237.487)" fill="#80d261"/>
      <path id="Path_147" data-name="Path 147" d="M384.91,326.185,376.318,331H352.066l-.607-1.172a17.278,17.278,0,0,1,33.451-3.639Z" transform="translate(-349.564 -252.886)" fill="#68ca44"/>
      <path id="Path_148" data-name="Path 148" d="M122.161,262.387a1.359,1.359,0,0,0,1.359-1.359l.053-30.517h23.417l4.312,4.311V255.01l-16.99,14.418h-91.6a1.889,1.889,0,0,1-1.889-1.889v-5.152h81.341Z" transform="translate(-40.82 -189.107)" fill="#97da7b"/>
      <g id="Group_97" data-name="Group 97" transform="translate(0 10.832)">
        <path id="Path_149" data-name="Path 149" d="M25.238,346.543a12.619,12.619,0,0,1-25.238,0C0,339.587,25.238,339.587,25.238,346.543Z" transform="translate(95.119 -278.341)" fill="#918291"/>
        <path id="Path_150" data-name="Path 150" d="M1.4,352.308a12.6,12.6,0,0,1,5.473-16.993h6.172a12.535,12.535,0,0,0-3.086-1.105,12.616,12.616,0,1,1,0,24.667A12.622,12.622,0,0,0,19.7,344.235a1.913,1.913,0,0,0-2.873-1.284Z" transform="translate(95.12 -278.339)" fill="#7a6d79"/>
        <g id="Group_94" data-name="Group 94" transform="translate(102.375 62.842)">
          <path id="Path_151" data-name="Path 151" d="M30,369.287a5.362,5.362,0,1,0,5.362-5.36A5.362,5.362,0,0,0,30,369.287Z" transform="translate(-30 -363.927)" fill="#7a6d79"/>
        </g>
        <path id="Path_152" data-name="Path 152" d="M44.8,365.789l-9.044,5.483a5.362,5.362,0,0,1,9.044-5.483Z" transform="translate(67 -301.085)" fill="#685e68"/>
        <path id="Path_153" data-name="Path 153" d="M62.568,230.509l4.312,4.312v20.187L49.89,269.427H44.446c-.028-.429-.043-.859-.043-1.286a19.757,19.757,0,0,1,12.242-18.25,5.977,5.977,0,0,0,3.734-5.516V231.938l-17.8-.216a1.877,1.877,0,0,1-1.755-1.214H62.568Z" transform="translate(43.603 -199.937)" fill="#80d261"/>
        <path id="Path_154" data-name="Path 154" d="M29.914,324.517a14.812,14.812,0,0,1,8.533,2.69A1.071,1.071,0,0,1,38.382,329L16.764,342.1a1.074,1.074,0,0,1-1.62-.787,14.889,14.889,0,0,1,14.77-16.8Z" transform="translate(77.824 -271.207)" fill="#97da7b"/>
        <path id="Path_155" data-name="Path 155" d="M381.961,368.051c0,.433-.021.861-.053,1.286H347.522c-.025,0-.049,0-.073,0-.031-.424-.053-.85-.053-1.282a17.2,17.2,0,0,1,.989-5.755h32.587A17.2,17.2,0,0,1,381.961,368.051Z" transform="translate(-345.633 -299.848)" fill="#80d261"/>
        <circle id="Ellipse_25" data-name="Ellipse 25" cx="12.445" cy="12.445" r="12.445" transform="translate(6.601 55.758)" fill="#918291"/>
        <path id="Path_156" data-name="Path 156" d="M377.185,347.084a12.456,12.456,0,0,0-9.784-12.158,12.446,12.446,0,1,1,0,24.315A12.458,12.458,0,0,0,377.185,347.084Z" transform="translate(-351.028 -278.881)" fill="#7a6d79"/>
        <ellipse id="Ellipse_26" data-name="Ellipse 26" cx="5.055" cy="5.055" rx="5.055" ry="5.055" transform="translate(13.991 63.148)" fill="#7a6d79"/>
        <path id="Path_157" data-name="Path 157" d="M23.716,295.511h9.1a2.532,2.532,0,0,0,2.532-2.532v-4.19a2.532,2.532,0,0,0-2.532-2.532H31.174a7.861,7.861,0,0,0-7.861,7.861v.991A.4.4,0,0,0,23.716,295.511Z" transform="translate(79.37 -242.201)" fill="#fee45a"/>
        <g id="XMLID_198_" transform="translate(0)">
          <g id="Group_96" data-name="Group 96">
            <g id="XMLID_199_" transform="translate(0 13.451)">
              <g id="Group_95" data-name="Group 95">
                <path id="Path_158" data-name="Path 158" d="M384.263,163.678l3.265-3.95h17.858l3.36,3.991V180.37a3.585,3.585,0,0,0,1.05,2.535l1.838,1.838H384.21V165.071Q384.21,164.367,384.263,163.678Z" transform="translate(-384.21 -159.728)" fill="#fee45a"/>
              </g>
            </g>
            <path id="Path_159" data-name="Path 159" d="M187.774,104.117h57.707l2.97,2.874v6.446l-2.97,1.267H195.453a1.939,1.939,0,0,0-1.937,1.937v4.917l-24.483-.041A18.793,18.793,0,0,1,187.774,104.117Z" transform="translate(-168.98 -104.117)" fill="#f8ec41"/>
            <path id="Path_160" data-name="Path 160" d="M62.354,119.373l1.323,3.421,11.675,20.187-.638,2.886H54.635L49.42,119.373Z" transform="translate(33.051 -115.683)" fill="#fff"/>
            <path id="Path_161" data-name="Path 161" d="M69.633,143.486,57.957,123.3l-1.323-3.421H49.519l-.1-.5H62.354l1.323,3.421,11.675,20.187-.638,2.886H69.107Z" transform="translate(33.051 -115.683)" fill="#fff"/>
            <path id="Path_162" data-name="Path 162" d="M40.82,114.7v1.4a4.361,4.361,0,0,0,.1.949l4.612,20.754A1.52,1.52,0,0,0,47.02,139H74.8v-3.309a2.564,2.564,0,0,0-.343-1.282l-1.737-2.994L57,131.5a1.878,1.878,0,0,1-1.829-1.451l-3.947-16.883a1.525,1.525,0,0,1,1.485-1.872h7.868a1.679,1.679,0,0,0,1.679-1.679V105.8a1.678,1.678,0,0,0-1.679-1.679H40.82Z" transform="translate(35.681 -104.117)" fill="#fee45a"/>
            <path id="Path_163" data-name="Path 163" d="M64.441,139a2.918,2.918,0,0,0-2.882-2.918L46.636,135.9a1.878,1.878,0,0,1-1.829-1.451l-3.947-23.9a1.525,1.525,0,0,1,1.485-1.872s9.641-.024,9.791-.068A1.678,1.678,0,0,0,53.344,107v-2.886h3.37a1.679,1.679,0,0,1,1.679,1.679v3.822a1.679,1.679,0,0,1-1.679,1.679H48.846a1.525,1.525,0,0,0-1.485,1.872l3.947,16.883a1.878,1.878,0,0,0,1.829,1.451l15.725-.087L70.6,134.41a2.564,2.564,0,0,1,.343,1.282V139h-6.5Z" transform="translate(39.542 -104.117)" fill="#f8ec41"/>
          </g>
        </g>
      </g>
    </g>
  </g>
</svg>