<?xml version="1.0" encoding="utf-8"?>

<!DOCTYPE svg PUBLIC "-//W3C//DTD SVG 1.1//EN" "http://www.w3.org/Graphics/SVG/1.1/DTD/svg11.dtd">
<!-- Uploaded to: SVG Repo, www.svgrepo.com, Generator: SVG Repo Mixer Tools -->
<svg height="800px" width="800px" version="1.1" id="_x32_" xmlns="http://www.w3.org/2000/svg" xmlns:xlink="http://www.w3.org/1999/xlink" 
	 viewBox="0 0 512 512"  xml:space="preserve">
<style type="text/css">
	.st0{fill:#000000;}
</style>
<g>
	<path class="st0" d="M412.919,275.764l1.261,1.897l-11.238,34.402l-63.576,20.792l-37.112-27.064v-29.754
		c-3.14,2.602-6.784,4.596-10.78,5.733v24.021l-37.102,27.064l-63.558-20.783l-11.274-34.412c1.438-2.285,2.902-4.561,4.473-6.748
		l0.017-0.026l0.133-0.168c-3.141-3.017-5.638-6.713-7.208-10.858c-3.696,9.738-12.42,17.007-22.838,18.762
		c-11.212,21.824-17.563,46.585-17.608,72.803v0.017v0.212c0,35.788,11.741,68.912,31.625,95.544
		c19.407,26.146,46.603,46.189,78.236,56.651c15.905,5.328,32.904,8.15,50.485,8.15c17.624,0,34.632-2.823,50.572-8.212
		c31.572-10.419,58.812-30.46,78.219-56.616l-0.009,0.017c19.822-26.631,31.563-59.756,31.554-95.535v-0.212v-0.017
		c-0.053-31.73-9.36-61.317-25.388-86.167C427.13,270.913,420.444,274.759,412.919,275.764z M190.585,440.75
		c-1.764-2.1-3.511-4.217-5.152-6.422l-0.018-0.026c-17.202-23.06-27.337-51.596-27.346-82.647v-0.194
		c0.009-2.717,0.176-5.39,0.335-8.072l29.076-21.065l63.602,20.791l14.21,43.464l-39.308,54.172H190.585z M348.24,480.491
		c-2.505,0.996-5.019,1.994-7.604,2.84l-0.08,0.026c-13.7,4.631-28.36,7.084-43.7,7.084c-15.28,0-29.966-2.452-43.684-7.04
		l-0.08-0.026c-2.575-0.856-5.081-1.853-7.586-2.849l-10.832-33.398l39.343-54.224h45.607l39.167,54.974L348.24,480.491z
		 M435.634,351.461v0.194c0,31.059-10.135,59.597-27.294,82.656l-0.008,0.017c-1.641,2.205-3.388,4.313-5.152,6.422h-36.23
		l-38.531-54.075l14.238-43.56l63.602-20.8l29.049,21.065C435.466,346.062,435.634,348.734,435.634,351.461z"/>
	<path class="st0" d="M373.514,119.609l-1.508,2.258l-19.222,19.213c-3.644,3.652-9.545,3.652-13.197,0
		c-3.652-3.643-3.652-9.544,0-13.196l13.735-13.735c-6.986-2.188-14.176-4.711-21.445-7.508l-0.264,0.398l-21.965,21.956
		c-3.644,3.644-9.554,3.644-13.198,0c-3.652-3.652-3.652-9.553,0-13.214l16.761-16.761c-7.454-3.211-14.838-6.572-22-10.003
		c-0.459,1.067-1.094,2.081-1.958,2.955l-21.966,21.957c-3.634,3.643-9.553,3.643-13.205,0c-3.634-3.652-3.634-9.554,0-13.198
		l20.13-20.13c-19.416-9.942-35.858-19.477-45.218-25.723c-14.935-9.96-22.062-10.269-27.912-7.463V0h-18.066v60.894
		c-12.28,10.974-32.577,28.793-60.982,28.793c-31.977,0-42.95-10.974-55.124-24.876c-3.467-3.961-6.978-6.74-10.356-8.478V0H38.487
		v60.488c-2.214,3.688-3.554,8.945-3.554,15.825c0,14.334,0,114.457,0,134.306c0,18.031,7.348,30.566,33.468,32.718l0.874,10.63
		c0.326,4.093,3.75,7.251,7.86,7.251h13.109c4.102,0,7.534-3.158,7.86-7.251l0.944-11.503c9.042-0.935,18.19-2.286,28.343-3.652
		l0.926,11.291c0.327,4.093,3.759,7.251,7.861,7.251h13.108c4.102,0,7.534-3.158,7.861-7.251l1.2-14.732
		c9.518-0.776,20.015-1.385,32.056-1.623c1.703-0.035,3.378-0.009,5.02,0.027l1.341,16.328c0.326,4.093,3.758,7.251,7.86,7.251
		h13.109c4.111,0,7.534-3.158,7.86-7.251l1.006-12.253c10.056,1.958,21.136,4.226,35.082,5.91l0.829,10.207
		c0.335,4.093,3.767,7.251,7.869,7.251h13.1c4.111,0,7.534-3.158,7.869-7.251l0.644-7.957c10.648,0.336,22.662,0.282,36.406-0.344
		l0.68,8.301c0.335,4.093,3.758,7.251,7.868,7.251h13.099c4.102,0,7.534-3.158,7.868-7.251l0.856-10.542
		c10.364-1.05,19.954-2.399,28.704-4.067l0.644,7.842c0.335,4.093,3.767,7.251,7.86,7.251h13.108c4.111,0,7.534-3.158,7.869-7.251
		l1.288-15.843c44.142-15.243,58.829-40.199,58.829-63.744C477.067,135.928,424.457,131.552,373.514,119.609z M89.572,122.722
		c-10.312,0-39.97,0-39.97,0s0-38.664,0-43.181c0-4.516,4.517-7.745,10.321-2.584c2.584,2.302,23.835,21.922,32.224,25.785
		C100.528,106.615,99.884,122.722,89.572,122.722z M153.474,203.94l-48.438-65.745h27.073l48.438,65.745H153.474z M208.546,203.94
		l-48.438-65.745h27.073l48.438,65.745H208.546z M266.555,203.94l-48.438-65.745h27.081l48.429,65.745H266.555z"/>
</g>
</svg>