<?xml version="1.0" ?><!-- Uploaded to: SVG Repo, www.svgrepo.com, Generator: SVG Repo Mixer Tools -->
<svg width="800px" height="800px" viewBox="0 0 256 256" xmlns="http://www.w3.org/2000/svg"><path d="m17 82.85c-2.3 3.07-1.51 73.57 0 76s105.83 59.7 108.54 59.7 111.26-62.11 111.86-64.22 1.81-67.54 0-69-54.22-29.33-57.54-29.33-50.65 26.53-53.37 26.53-49.14-27.11-52.76-27.11-54.88 25.02-56.73 27.43z" fill="#191919"/><path d="m125.59 226.53c-2.47 0-4.11 0-58.58-29.93s-55.41-31.38-56.75-33.53c-1.2-1.92-2.44-3.9-2.64-41.94-.21-38.76 1.29-40.76 3-43.08 1.2-1.59 2.55-3.4 30.57-17s30.64-13.63 32.54-13.63c3.33 0 6.33 1.28 33.23 16 6.7 3.67 15.43 8.45 19.59 10.51 4.35-2.07 13.65-7 20.78-10.73 26.67-14.06 29.37-15.2 32.53-15.2 2.32 0 4.16 0 33 15 4.54 2.35 27.31 14.18 29.67 16.15 3.29 2.74 3.5 6 3.73 17.11.15 7.47.12 16.85.06 23.41-.11 12.58-.42 34.1-1.21 36.87-1 3.33-3.11 4.69-8.31 7.95-3 1.87-7.23 4.44-12.65 7.66-9.9 5.88-23.36 13.71-37.9 22-14.25 8.21-27.88 15.85-38.25 21.64-19.38 10.74-20 10.74-22.41 10.74zm-101.14-72.31c14.41 8.86 85.68 48.05 101.07 55.58 15.71-8 89.25-50.18 104.23-59.78.52-11.66 1-48.65.35-59.82-10.07-5.62-41.48-22-50.19-25.72-4.85 2.19-16.83 8.5-25.12 12.88-24.1 12.7-25.4 13.19-28.29 13.19s-4.19-.48-27.22-13.09c-8.55-4.68-20.93-11.46-25.75-13.65-8.53 3.29-40.18 18.59-49.28 23.84-1.09 11.6-.74 54.56.2 66.57z" fill="#191919"/><path d="m17 82.85c-2.3 3.07-1.51 73.57 0 76s105.83 59.7 108.54 59.7 111.26-62.11 111.86-64.22 1.81-67.54 0-69-54.22-29.33-57.54-29.33-50.65 26.53-53.37 26.53-49.14-27.11-52.76-27.11-54.88 25.02-56.73 27.43z" fill="#e83a2a"/><path d="m179.26 110.89c1 1.64 58.19-23.82 58.19-25.63s-55.78-31.05-57.59-29.26-2.11 52.48-.6 54.89z" fill="#ffffff"/></svg>