<svg xmlns="http://www.w3.org/2000/svg" viewBox="0 0 500 500"><g id="freepik--Ramen--inject-231"><path d="M377.42,311c-4.38-12.66-12.23-25.62-8.54-38.5,2.74-9.55,11.67-18.52,8.18-27.83-2.69-7.19-11.53-10-15.93-16.27-5.88-8.39-2.29-19.81.92-29.54s5.16-22.08-2.58-28.8c-7.31-6.36-19.73-4-26.51-10.94-5.18-5.29-4.8-14.12-1.55-20.77s8.78-11.85,13.47-17.58c9.14-11.19,15.37-25.31,14.76-39.74s-9-28.91-22.31-34.48-31-.1-36.95,13.06c-6.88,15.14,2.07,34.91-7.33,48.63-11.65,17-41,10.41-54.72,25.85-14.06,15.88-2.59,44.7-17.58,59.71-13.36,13.39-38.37,6-52.67,18.37-12.45,10.79-10.66,31-20,44.56-8.07,11.82-23,16.68-33.79,26.06-19.19,16.67-22.15,48.87-6.31,68.75L347.76,399C375.48,380.56,388.3,342.5,377.42,311Z" style="fill:#575251"></path><g style="opacity:0.8"><path d="M377.42,311c-4.38-12.66-12.23-25.62-8.54-38.5,2.74-9.55,11.67-18.52,8.18-27.83-2.69-7.19-11.53-10-15.93-16.27-5.88-8.39-2.29-19.81.92-29.54s5.16-22.08-2.58-28.8c-7.31-6.36-19.73-4-26.51-10.94-5.18-5.29-4.8-14.12-1.55-20.77s8.78-11.85,13.47-17.58c9.14-11.19,15.37-25.31,14.76-39.74s-9-28.91-22.31-34.48-31-.1-36.95,13.06c-6.88,15.14,2.07,34.91-7.33,48.63-11.65,17-41,10.41-54.72,25.85-14.06,15.88-2.59,44.7-17.58,59.71-13.36,13.39-38.37,6-52.67,18.37-12.45,10.79-10.66,31-20,44.56-8.07,11.82-23,16.68-33.79,26.06-19.19,16.67-22.15,48.87-6.31,68.75L347.76,399C375.48,380.56,388.3,342.5,377.42,311Z" style="fill:#fff"></path></g><circle cx="159.23" cy="86.73" r="27.46" style="fill:#575251"></circle><circle cx="159.23" cy="86.73" r="27.46" style="fill:#fff;opacity:0.8"></circle><ellipse cx="234.23" cy="456.12" rx="71.87" ry="24.65" style="fill:#575251"></ellipse><path d="M166.63,454.55s6.33,20.84,68.79,21.27,69-19.52,69-19.52S268.18,468,237,466.49,166.63,454.55,166.63,454.55Z" style="opacity:0.30000000000000004"></path><path d="M371.59,336.42c-1.91-19.78-22.88-37.06-51.91-48.8A135.07,135.07,0,0,0,305,282.44c-20.82-6.37-45.36-10-71.63-10-72.5,0-131.78,28-136.22,63.31a27.38,27.38,0,0,0-.17,6.75c0,.57.1,1.14.17,1.71,0,6.73,10.18,81.45,63.71,109.92,43.81,23.3,86.82,26.24,133.78,8.32,8.84-3.38,16.76-9,25.45-15.11C371.8,411,371.59,343.74,371.59,343.74Z" style="fill:#575251"></path><path d="M234.23,281.22c-70.84,0-128.27,26.22-128.27,58.55,0,13.92,10.64,26.69,28.4,36.74,19.19-13.88,42.89-21.3,66.39-25.59,25.53-4.66,52-6.07,77.36-.69,20.22,4.29,39.77,13.17,55.29,26.68,18.18-10.11,29.1-23,29.1-37.14C362.5,307.44,305.07,281.22,234.23,281.22Z" style="opacity:0.30000000000000004"></path><path d="M96.87,340s0,.29.07.85.09,1.41.15,2.5c.07.55.18,1.16.29,1.83a21.48,21.48,0,0,0,.4,2.19c.2.78.42,1.61.66,2.51s.64,1.8,1,2.79a47,47,0,0,0,7.89,12.95,74,74,0,0,0,15.06,13.34,121.25,121.25,0,0,0,21.47,11.66,181.79,181.79,0,0,0,26.6,9A237.62,237.62,0,0,0,201,405.27a276.43,276.43,0,0,0,66.55,0A237.46,237.46,0,0,0,298,399.56a181.79,181.79,0,0,0,26.6-9,122.37,122.37,0,0,0,21.48-11.66,74.56,74.56,0,0,0,15.06-13.34A47.18,47.18,0,0,0,369,352.64c.34-1,.74-1.9,1-2.79l.67-2.51c.34-1.57.5-2.93.68-4s.12-1.92.15-2.5.07-.85.07-.85,0,.29,0,.85-.06,1.42-.11,2.51-.3,2.46-.63,4c-.2.78-.42,1.63-.64,2.53s-.63,1.82-1,2.81a47.05,47.05,0,0,1-7.85,13.06,74.38,74.38,0,0,1-15.07,13.46A121.26,121.26,0,0,1,324.79,391a180.87,180.87,0,0,1-26.65,9,240.24,240.24,0,0,1-30.57,5.75,276.15,276.15,0,0,1-66.68,0A239.91,239.91,0,0,1,170.32,400a182.45,182.45,0,0,1-26.65-9,121.79,121.79,0,0,1-21.51-11.75,74.18,74.18,0,0,1-15.08-13.46,47.09,47.09,0,0,1-7.85-13.07c-.33-1-.72-1.91-1-2.81s-.45-1.74-.64-2.53a20.79,20.79,0,0,1-.38-2.2c-.1-.68-.2-1.29-.26-1.84,0-1.09-.08-1.93-.1-2.51S96.87,340,96.87,340Z" style="fill:#263238"></path><path d="M100.82,363.9s.05.28.13.82.18,1.38.32,2.44.49,2.36.88,3.89a45.12,45.12,0,0,0,1.8,5.12,51.84,51.84,0,0,0,7.77,12.67,75.71,75.71,0,0,0,14.46,13.38c11.84,8.63,27.93,16,46.62,21.11a223.15,223.15,0,0,0,29.81,5.85,266.3,266.3,0,0,0,32.55,2,279.59,279.59,0,0,0,32.58-1.95,225.81,225.81,0,0,0,29.84-5.68,169.79,169.79,0,0,0,25.91-9.13,117.65,117.65,0,0,0,20.69-12,76.34,76.34,0,0,0,14.27-13.57,53.76,53.76,0,0,0,7.64-12.75,26.45,26.45,0,0,0,1-2.7c.28-.87.55-1.67.8-2.42.36-1.53.72-2.82.92-3.88s.31-1.86.4-2.42.16-.82.16-.82,0,.28-.11.83-.19,1.37-.35,2.43-.53,2.36-.87,3.9q-.37,1.14-.78,2.43a25.57,25.57,0,0,1-1,2.72,53.23,53.23,0,0,1-7.6,12.86,76.45,76.45,0,0,1-14.28,13.69,118.21,118.21,0,0,1-20.73,12.08,169.5,169.5,0,0,1-26,9.2,224.72,224.72,0,0,1-29.9,5.73,278.42,278.42,0,0,1-32.64,2,265.42,265.42,0,0,1-32.62-2.05,222,222,0,0,1-29.86-5.89c-18.73-5.1-34.86-12.57-46.72-21.27A75.82,75.82,0,0,1,111.49,389a51.62,51.62,0,0,1-7.73-12.77,44.63,44.63,0,0,1-1.76-5.16c-.37-1.54-.63-2.86-.83-3.92s-.21-1.88-.27-2.44S100.82,363.9,100.82,363.9Z" style="fill:#fff"></path><path d="M115,405.07s.17.15.48.46l1.35,1.36,2.19,2.22c.9.85,2,1.74,3.22,2.8a104.16,104.16,0,0,0,23,14.31c1.3.59,2.6,1.28,4,1.83l4.26,1.73,2.19.9,2.28.8,4.69,1.64c1.59.55,3.25,1,4.91,1.51s3.35,1.06,5.1,1.47c3.49.85,7.05,1.86,10.77,2.56,1.86.38,3.73.79,5.64,1.16l5.81,1,3,.49,3,.39,6.08.77c8.21.8,16.73,1.5,25.48,1.55,4.38.14,8.7,0,13-.05,2.13-.05,4.24-.2,6.34-.29l3.13-.15c1-.07,2.07-.17,3.1-.25l6.11-.51,6-.7c1-.12,2-.21,2.94-.35l2.89-.45c1.92-.3,3.82-.55,5.69-.88a198.19,198.19,0,0,0,38.76-10.66,128,128,0,0,0,24.08-12.43l3.51-2.41,2.46-1.93,1.52-1.17c.35-.27.53-.39.53-.39l-.49.43L350.33,413l-2.43,2c-1,.73-2.18,1.54-3.49,2.46A125.92,125.92,0,0,1,320.35,430a195.91,195.91,0,0,1-38.82,10.79c-1.87.33-3.77.59-5.7.9l-2.9.45c-1,.14-1.95.23-2.94.36l-6,.71-6.13.51c-1,.08-2.06.19-3.1.25l-3.14.16c-2.09.09-4.21.23-6.34.28-4.27.07-8.6.2-13,.06-8.76-.05-17.3-.75-25.52-1.56l-6.09-.78-3-.39-2.95-.5-5.82-1c-1.91-.37-3.79-.79-5.65-1.17-3.73-.71-7.3-1.72-10.79-2.59-1.75-.41-3.43-1-5.1-1.48s-3.33-1-4.92-1.53l-4.7-1.66-2.28-.81-2.2-.9L149,428.4c-1.4-.56-2.7-1.25-4-1.85a102,102,0,0,1-22.94-14.49c-1.2-1.07-2.31-2-3.19-2.84s-1.58-1.64-2.16-2.26l-1.32-1.4C115.11,405.24,115,405.07,115,405.07Z" style="fill:#fff"></path><path d="M318.87,448.19a4.12,4.12,0,0,1-.34.29l-1.06.79c-1,.67-2.28,1.76-4.13,3a115.06,115.06,0,0,1-16.24,9.24,126.44,126.44,0,0,1-26.25,8.84,173.66,173.66,0,0,1-33.72,3.78c-3,.08-6,0-8.93-.1s-5.82-.31-8.65-.64-5.59-.68-8.3-1-5.34-.89-7.89-1.47a144.32,144.32,0,0,1-26.45-8.24,132.3,132.3,0,0,1-16.69-8.4c-1.92-1.1-3.32-2.1-4.31-2.71l-1.1-.73a4,4,0,0,1-.37-.26l.4.22,1.13.68c1,.59,2.42,1.55,4.35,2.62a139.55,139.55,0,0,0,16.73,8.24,146.69,146.69,0,0,0,26.41,8.11c2.54.58,5.18,1,7.87,1.45s5.45.79,8.28,1,5.69.46,8.61.64,5.9.17,8.9.08a174.23,174.23,0,0,0,33.62-3.72,128,128,0,0,0,26.21-8.7,120.5,120.5,0,0,0,16.28-9.08c1.86-1.18,3.21-2.24,4.18-2.88l1.08-.75Z" style="fill:#263238"></path><path d="M359.77,395.75s-.46-.16-1.33-.51l-3.89-1.57.08,0-12.92,25.66-.06.11-.12,0-17.91-4.58.19-.06L306.27,435l-.11.13L306,435l-19-8.49.25,0-19.78,16.33-.13.1-.15-.08L246,431.48l.28,0-12.18,9.36-4.7,3.61-.14.11-.16-.09-23.23-14.38.24,0-21.73,9.28-.15.06-.12-.11-18.55-17.64.23.05L148.17,428l-.15.05-.09-.13-14.2-20.29.22,0-10,5.95-.14.08-.07-.14c-4-7.88-7.08-14.11-9.22-18.39l-2.44-4.88L111.5,389c-.14-.28-.2-.43-.2-.43s.09.14.23.42.37.7.66,1.24l2.49,4.85c2.18,4.27,5.34,10.48,9.35,18.33l-.2-.05,10-6,.13-.08.09.13,14.27,20.25-.24-.07,17.63-6.31.13-.05.1.1L184.47,439l-.26-.05,21.72-9.3.12-.05.11.07L229.4,444h-.3l4.7-3.61L246,431.05l.13-.11.15.08,21.21,11.39-.28,0L287,426.13l.11-.09.14.06,18.95,8.52-.26.06,17.59-20.2.08-.09.11,0,17.89,4.65-.18.08c6-11.75,10.51-20.53,13.09-25.58l0-.05.06,0,3.86,1.64Z" style="fill:#fff"></path><path d="M225.77,299.94s72-55,88.1-91l58.36,53.61s-35.27,59.72-89.92,81.8Z" style="fill:#263238"></path><path d="M284.12,277.81a31.61,31.61,0,0,1-4.71-6.62,31.61,31.61,0,0,1,4.71,6.62Z" style="fill:#455a64"></path><path d="M289.24,279.21a21.39,21.39,0,0,1-6.56-8.2c.13-.07,1.36,1.93,3.17,4.19S289.34,279.1,289.24,279.21Z" style="fill:#455a64"></path><path d="M311,254.67a10.35,10.35,0,0,1-3.36-2.47,10.46,10.46,0,0,1-2.54-3.3c.12-.09,1.28,1.35,2.91,2.93S311.08,254.55,311,254.67Z" style="fill:#455a64"></path><path d="M313.15,253.63a35.48,35.48,0,0,1-5.78-6.22,16.85,16.85,0,0,1,3.08,2.93A17.12,17.12,0,0,1,313.15,253.63Z" style="fill:#455a64"></path><path d="M325.85,285.92a10,10,0,0,1-3.57-2.58,10.21,10.21,0,0,1-2.53-3.62c.14-.08,1.22,1.55,2.9,3.25S325.94,285.79,325.85,285.92Z" style="fill:#455a64"></path><path d="M328.84,284.59a10.3,10.3,0,0,1-2.61-1.92,10.43,10.43,0,0,1-2.28-2.32,20.41,20.41,0,0,1,4.89,4.24Z" style="fill:#455a64"></path><path d="M339.39,249.7a9.06,9.06,0,0,1-2.25-2.07,9.45,9.45,0,0,1-1.86-2.43,9.06,9.06,0,0,1,2.25,2.07A9.45,9.45,0,0,1,339.39,249.7Z" style="fill:#455a64"></path><path d="M340.8,248.88a11.79,11.79,0,0,1-2.38-2.48,11.52,11.52,0,0,1-2-2.82,23.12,23.12,0,0,1,4.36,5.3Z" style="fill:#455a64"></path><path d="M204.38,303l8.11-.09c1.33-8.36.56-19.1-6.94-34.85s.13-27.1.13-27.1l-13.09.92c-10,13.46,0,29.45,4.49,40.84a34.12,34.12,0,0,1,1.35,21.09Z" style="fill:#455a64"></path><path d="M189.5,303.65l7.2-.71c.53-7.54-1-17-8.89-30.45s-2-24.12-2-24.12l-11.56,1.84c-7.85,12.75,2.32,26.19,7.18,36a30.44,30.44,0,0,1,2.85,18.65Z" style="fill:#455a64"></path><path d="M178.84,302.81l6.25-2.33c-1.31-6.84-4.9-14.94-15.11-25s-7.47-21-7.47-21l-9.87,4.36c-4,13.22,8.24,22.79,14.88,30.37a28.08,28.08,0,0,1,6.94,15.95Z" style="fill:#455a64"></path><path d="M75.55,215.16h0A3.65,3.65,0,0,0,80,217.77l364.7-94.33a9.28,9.28,0,0,0,6.66-11.31h0a9.28,9.28,0,0,0-11.57-6.58L324.62,139,78.06,210.76A3.64,3.64,0,0,0,75.55,215.16Z" style="fill:#eb996e"></path><polygon points="327.74 153.69 324.62 139.04 375.85 124.14 380 140.17 327.74 153.69" style="fill:#575251"></polygon><polygon points="401.39 134.64 392.59 136.91 388.35 120.5 397.08 117.99 401.39 134.64" style="fill:#575251"></polygon><path d="M407.56,114.92l4.26,17,33-8.41a9.27,9.27,0,0,0,6.53-11.27l0-.13a9.28,9.28,0,0,0-11.57-6.58Z" style="fill:#575251"></path><path d="M269.19,265.69c-6.45-15.66,1.69-15.81,6.35-32.66,3.87-14-.49-20.93-5.55-31.52s-2.84-17.8,3-26.46c6.43-9.54,5.66-22.51,5.66-22.51l-50.7,11.56a4,4,0,0,0-2.1,1.22c-7.48,8.16-12.64,27.52-8.73,37.26,2.13,5.31,9.51,13.76,10.51,19.4,1.94,11-8.22,19.11-11.52,29.78-2.5,8.08-1.51,13.19,2.35,19.25,4.34,6.8,11.73,12.23,12,19.41s-8.11,12.43-14.18,16.28c0,0,61.22,19.31,64.45-4.18S275.64,281.36,269.19,265.69Z" style="fill:#ffbe9d"></path><path d="M310.49,316.13c-4-5.43-10.37-13.29-18.9-18.83-9-5.85-19-8.19-28.22-6.62-7,1.19-13,4.54-18.33,7.49l-2.87,1.58c-4.47,2.41-10.24,5.08-15.21,4.33-2.84-.42-5.87-2-9.08-3.67-2-1-4-2.07-6.18-3a44.06,44.06,0,0,0-55,18.37l6.09,3.57a59.3,59.3,0,0,0-6.87,9.94L170.3,338c3.55-6.06,9.13-12,15.79-14.17a27.81,27.81,0,0,1,19.94,1c1.63.68,3.3,1.55,5.07,2.47,4,2.06,8.43,4.39,13.7,5.17,9.24,1.38,18.08-1.3,24.55-4.78l3-1.66c4.73-2.62,9.16-5.26,13.67-6a24.25,24.25,0,0,1,17.57,3.47c5,3.28,9.7,8,15.1,15.28l11.78-8.73a105.47,105.47,0,0,0-7.09-8.67Z" style="fill:#ffbe9d"></path><path d="M310.49,330.06a4.47,4.47,0,0,1-.3-.35l-.83-1c-.73-.91-1.82-2.26-3.27-4s-3.27-3.72-5.45-6-4.72-4.85-7.73-7.45a42.45,42.45,0,0,0-5-3.72,38.47,38.47,0,0,0-6-3.06,30.82,30.82,0,0,0-14.53-2.27c-5.24.51-10.34,2.87-15.33,5.62s-10.18,5.88-16.14,7.44a23.07,23.07,0,0,1-9,.62,28.94,28.94,0,0,1-8.32-2.85c-2.59-1.26-5-2.65-7.54-3.79a30.88,30.88,0,0,0-7.63-2.42,39.05,39.05,0,0,0-14.79.34,34,34,0,0,0-6.43,2,32.68,32.68,0,0,0-5.33,3.19,67.78,67.78,0,0,0-8.11,7c-2.23,2.24-4,4.3-5.43,6s-2.4,3.14-3.07,4.1l-.73,1.12c-.17.25-.27.37-.27.37s.07-.14.22-.4l.69-1.14a49.63,49.63,0,0,1,3-4.17,76.76,76.76,0,0,1,5.38-6.11,67,67,0,0,1,8.1-7.1,33.28,33.28,0,0,1,5.38-3.26,34.57,34.57,0,0,1,6.51-2,39.69,39.69,0,0,1,15-.39,32.17,32.17,0,0,1,7.76,2.44c2.53,1.15,5,2.55,7.55,3.8a28.68,28.68,0,0,0,8.18,2.79,22.62,22.62,0,0,0,8.83-.61c5.87-1.53,11-4.65,16-7.39a67.46,67.46,0,0,1,7.64-3.66,29.38,29.38,0,0,1,7.89-2,31.21,31.21,0,0,1,14.74,2.34,38.34,38.34,0,0,1,6.06,3.12,41.52,41.52,0,0,1,5,3.78c3,2.63,5.54,5.22,7.71,7.53s3.95,4.38,5.38,6.09,2.49,3.09,3.21,4c.33.46.59.82.79,1.08S310.49,330.06,310.49,330.06Z" style="fill:#263238"></path><path d="M305.63,318a2.58,2.58,0,0,1-.29-.34l-.79-1c-.7-.88-1.72-2.19-3.11-3.81a72.12,72.12,0,0,0-5.31-5.68,50.34,50.34,0,0,0-8.07-6.36,37,37,0,0,0-11.42-4.78,27.46,27.46,0,0,0-14.08.35c-4.84,1.41-9.46,4.08-14.27,6.74s-10,5.3-15.92,6a20.47,20.47,0,0,1-8.65-.78A47.44,47.44,0,0,1,216,305a67.78,67.78,0,0,0-7.29-3.46,31.39,31.39,0,0,0-7.48-1.77,40,40,0,0,0-14.17,1A25,25,0,0,0,181,303a37.14,37.14,0,0,0-5,3.23,69.68,69.68,0,0,0-7.7,6.82c-2.13,2.17-3.84,4.15-5.18,5.81s-2.29,3-2.94,3.94l-.69,1.08a1.67,1.67,0,0,1-.26.35l.21-.38.66-1.1a49.3,49.3,0,0,1,2.87-4,71.17,71.17,0,0,1,5.12-5.89,67.85,67.85,0,0,1,7.69-6.91,37.49,37.49,0,0,1,5-3.3,25.44,25.44,0,0,1,6.15-2.25,40.54,40.54,0,0,1,14.32-1.06,31.86,31.86,0,0,1,7.6,1.78,67.22,67.22,0,0,1,7.35,3.48,47,47,0,0,0,7.63,3.36,19.81,19.81,0,0,0,8.44.76c5.77-.71,10.95-3.33,15.73-6s9.47-5.33,14.39-6.75a27.85,27.85,0,0,1,14.3-.31,37.31,37.31,0,0,1,11.53,4.89,50.19,50.19,0,0,1,8.07,6.46,70.14,70.14,0,0,1,5.27,5.76c1.36,1.65,2.36,3,3,3.88.31.44.56.79.75,1S305.63,318,305.63,318Z" style="fill:#263238"></path><path d="M306.21,333.47a1.81,1.81,0,0,1-.28-.33l-.77-1-2.87-3.9c-1.25-1.69-2.79-3.76-4.69-6.05a44.12,44.12,0,0,0-7.21-7.07,37.55,37.55,0,0,0-10.93-5.38,28.73,28.73,0,0,0-13.85-.84c-4.87,1-9.56,3.36-14.27,6s-9.66,5.47-15.32,6.84a22.37,22.37,0,0,1-8.53.5,28,28,0,0,1-7.88-2.62c-2.46-1.17-4.78-2.48-7.11-3.6a36.89,36.89,0,0,0-21.05-3.48,29.86,29.86,0,0,0-11.54,3.75,44.72,44.72,0,0,0-8,6.19,58.48,58.48,0,0,0-5.15,5.64c-1.32,1.64-2.23,3-2.86,3.91l-.68,1.06a2.68,2.68,0,0,1-.25.35,36.44,36.44,0,0,1,3.63-5.44,56.07,56.07,0,0,1,5.11-5.73,43.61,43.61,0,0,1,8-6.29,30,30,0,0,1,11.68-3.87,37.69,37.69,0,0,1,14.11.81,36.81,36.81,0,0,1,7.2,2.65c2.36,1.13,4.68,2.43,7.12,3.59a27.58,27.58,0,0,0,7.73,2.57,22,22,0,0,0,8.34-.5c5.56-1.34,10.47-4.17,15.19-6.78s9.47-5.05,14.43-6a29.18,29.18,0,0,1,14.06.89,38,38,0,0,1,11,5.5,43.29,43.29,0,0,1,7.21,7.18c1.89,2.32,3.41,4.41,4.63,6.12l2.8,4,.72,1Z" style="fill:#263238"></path><path d="M302.23,335.43a1.57,1.57,0,0,1-.26-.31l-.71-.94c-.61-.84-1.48-2.1-2.57-3.74a45,45,0,0,0-4.26-5.73,29.23,29.23,0,0,0-7.51-5.66,36.09,36.09,0,0,0-10.71-3.9,27.28,27.28,0,0,0-13,.63c-4.44,1.3-8.74,3.68-13.15,6.14s-9.12,5-14.43,6.17a22.27,22.27,0,0,1-8,.38A26.4,26.4,0,0,1,220.3,326c-4.58-2.22-8.7-4.91-13.13-6.3a36.24,36.24,0,0,0-12.92-1.94,33.92,33.92,0,0,0-11.15,2.32,26.64,26.64,0,0,0-8,5,34.91,34.91,0,0,0-4.76,5.31c-1.18,1.57-2,2.87-2.55,3.73-.27.43-.47.76-.63,1a1.66,1.66,0,0,1-.23.33,43.5,43.5,0,0,1,3.25-5.18,34.08,34.08,0,0,1,4.73-5.41,26.8,26.8,0,0,1,8-5.11,34.34,34.34,0,0,1,11.28-2.41,36.71,36.71,0,0,1,13.09,1.91c4.49,1.41,8.66,4.11,13.19,6.3a26.05,26.05,0,0,0,7.22,2.43,22.15,22.15,0,0,0,7.81-.37c5.21-1.17,9.88-3.67,14.29-6.12s8.75-4.84,13.27-6.15a27.6,27.6,0,0,1,13.17-.6,36.19,36.19,0,0,1,10.82,4,29.07,29.07,0,0,1,7.54,5.79,42.82,42.82,0,0,1,4.22,5.81c1.06,1.66,1.9,2.93,2.48,3.79l.67,1C302.16,335.31,302.23,335.43,302.23,335.43Z" style="fill:#263238"></path><path d="M280.57,156.22c.81,5.18-1.57,10.4-3.7,15-2.34,5-4.79,10.2-5,15.85-.19,4.83,1.63,9.33,4,13.44,2.21,3.84,5,7.48,6.56,11.65a19.08,19.08,0,0,1-.81,15.48c-1.54,3,3,5.65,4.52,2.65a24.75,24.75,0,0,0,2.36-15.88c-.87-4.74-3.43-8.94-5.95-13-2.29-3.68-4.87-7.57-5.38-12-.63-5.48,2-10.76,4.22-15.58,2.81-6.05,5.29-12.23,4.23-19A2.65,2.65,0,0,0,282.4,153a2.7,2.7,0,0,0-1.83,3.23Z" style="fill:#ffbe9d"></path><path d="M201.26,366.72s-18.71-2.55-18-27.66,12.47-42.39,28.66-38.67,16.8,13.19,16.82,19.81.47,21.63-4,32.41C222.14,358.71,212.12,369.07,201.26,366.72Z" style="fill:#575251"></path><g style="opacity:0.30000000000000004"><path d="M204,352.5a16.85,16.85,0,0,0,10.6-2.57l-.13.09a1.88,1.88,0,0,0,.18-.12l.41-.28c.28-.19.56-.39.82-.6l.23-.17-.2.14a18.52,18.52,0,0,0,5.19-7.46,19.06,19.06,0,0,0,1.44-5.25,7.36,7.36,0,0,0-1.31-5.17,6.58,6.58,0,0,0-5.32-2.37,9.5,9.5,0,0,0-5.54,2.15c-1.47,1.15-2.65,2.63-4.07,3.85a7.21,7.21,0,0,1-5.07,2c-1.55-.13-2.93-1-4.46-1.27a5.61,5.61,0,0,0-6.12,4c-.62,2.47.57,5.06,2.19,7A16.75,16.75,0,0,0,204,352.5Z"></path></g><g style="opacity:0.30000000000000004"><path d="M215.05,305.08a16.83,16.83,0,0,0-10.9-.44l.16-.05-.22.07-.47.16c-.32.1-.64.22-1,.35l-.27.1.23-.08a18.38,18.38,0,0,0-7,5.75,18.62,18.62,0,0,0-2.83,4.65,7.38,7.38,0,0,0-.16,5.33,6.55,6.55,0,0,0,4.47,3.73,9.47,9.47,0,0,0,5.91-.54c1.73-.7,3.28-1.8,5-2.58a7.18,7.18,0,0,1,5.43-.56c1.45.55,2.53,1.79,3.94,2.45a5.61,5.61,0,0,0,7-2.2c1.28-2.2.84-5-.17-7.35A16.81,16.81,0,0,0,215.05,305.08Z"></path></g><g style="opacity:0.30000000000000004"><path d="M202.14,328.66a5.81,5.81,0,0,0-2-.63l-4.17-.78c-1.08-.2-2.34-.35-3.14.4a1.79,1.79,0,0,0-.37,2,2.43,2.43,0,0,0,1.6,1.32l-.16-.08a12.88,12.88,0,0,0,6.4,1.32,4.19,4.19,0,0,0,1.79-.41,1.85,1.85,0,0,0,1-1.44A2,2,0,0,0,202.14,328.66Z"></path></g><path d="M198.59,305.32c.06.08-1,.94-2.55,2.55A31.81,31.81,0,0,0,188,323c-.48,2.16-.6,3.54-.69,3.53a3,3,0,0,1,0-1,20.52,20.52,0,0,1,.32-2.63,28.86,28.86,0,0,1,2.89-8.26,28.49,28.49,0,0,1,5.24-7,20.45,20.45,0,0,1,2-1.74A4,4,0,0,1,198.59,305.32Z" style="fill:#fff"></path><path d="M205.67,302.52c0,.13-.75.5-1.77.8s-1.87.45-1.91.31.75-.5,1.76-.81S205.63,302.38,205.67,302.52Z" style="fill:#fff"></path><path d="M186.44,345.21a4.94,4.94,0,0,1-.88-2.73,5.09,5.09,0,0,1,.25-2.86,19.5,19.5,0,0,1,.27,2.81A20.26,20.26,0,0,1,186.44,345.21Z" style="fill:#fff"></path><path d="M143.41,318c-7.3-.15-15.1.83-20.68,5.54-5.36,4.53-7.72,11.84-7.79,18.86s2,16.77,3.9,23.52l49.63-43.64A85.79,85.79,0,0,0,143.41,318Z" style="fill:#ffbe9d"></path><path d="M138.39,350.52s-15.34-11-3-32.86,30.86-31.63,43.43-20.77,8.67,19.53,5.59,25.38-9.71,19.34-18.74,26.75C160.59,353.22,146.88,357.68,138.39,350.52Z" style="fill:#575251"></path><g style="opacity:0.30000000000000004"><path d="M147.43,339.22A16.8,16.8,0,0,0,158,341.91l-.16,0,.22,0,.5,0c.33,0,.67-.08,1-.15l.29,0-.25,0a18.45,18.45,0,0,0,8.08-4.17,18.93,18.93,0,0,0,3.73-4,7.35,7.35,0,0,0,1.26-5.18,6.58,6.58,0,0,0-3.59-4.58,9.57,9.57,0,0,0-5.9-.7c-1.84.34-3.58,1.09-5.41,1.5a7.22,7.22,0,0,1-5.43-.58c-1.3-.84-2.1-2.28-3.34-3.21a5.6,5.6,0,0,0-7.29.7c-1.7,1.89-1.87,4.73-1.35,7.23A16.76,16.76,0,0,0,147.43,339.22Z"></path></g><g style="opacity:0.30000000000000004"><path d="M179.43,302.51A16.8,16.8,0,0,0,170,297l.17,0-.23,0c-.16,0-.32-.06-.49-.09-.33-.05-.66-.1-1-.13l-.29,0,.25,0a18.36,18.36,0,0,0-8.91,1.79,18.86,18.86,0,0,0-4.68,2.78,7.41,7.41,0,0,0-2.64,4.64,6.59,6.59,0,0,0,2.2,5.39,9.52,9.52,0,0,0,5.48,2.29c1.86.18,3.74-.06,5.61.05a7.16,7.16,0,0,1,5.06,2c1,1.16,1.4,2.77,2.33,4a5.62,5.62,0,0,0,7.21,1.33c2.15-1.35,3.09-4,3.28-6.58A16.76,16.76,0,0,0,179.43,302.51Z"></path></g><g style="opacity:0.30000000000000004"><path d="M157,317.3a5.67,5.67,0,0,0-1.45-1.48l-3.32-2.64c-.86-.69-1.91-1.41-3-1.12a1.8,1.8,0,0,0-1.27,1.6,2.46,2.46,0,0,0,.8,1.91l-.1-.15a12.9,12.9,0,0,0,5,4.17,4.44,4.44,0,0,0,1.78.47,1.88,1.88,0,0,0,1.59-.78A1.93,1.93,0,0,0,157,317.3Z"></path></g><path d="M164.77,295c0,.09-1.34.35-3.44,1.05a32,32,0,0,0-14.16,9.57c-1.43,1.69-2.18,2.85-2.26,2.8a3.87,3.87,0,0,1,.46-.86,19.76,19.76,0,0,1,1.52-2.17,28.73,28.73,0,0,1,14.33-9.69,20.44,20.44,0,0,1,2.58-.6A3.21,3.21,0,0,1,164.77,295Z" style="fill:#fff"></path><path d="M172.34,295.85c0,.14-.9.09-1.94-.11s-1.86-.49-1.83-.63.89-.09,1.93.11S172.37,295.71,172.34,295.85Z" style="fill:#fff"></path><path d="M135.36,324.58a5.07,5.07,0,0,1,.5-2.83,5.18,5.18,0,0,1,1.56-2.41,19.52,19.52,0,0,1-1.08,2.6A18.5,18.5,0,0,1,135.36,324.58Z" style="fill:#fff"></path><path d="M123.8,369.12a124.72,124.72,0,0,0,16.3,10.26c4-6.81,10.44-14.2,17.92-16.69a31.28,31.28,0,0,1,22.42,1.12c1.84.77,3.72,1.74,5.7,2.78,4.44,2.31,9.47,4.93,15.4,5.81,10.39,1.54,20.32-1.46,27.6-5.38q1.7-.91,3.39-1.86c5.31-3,10.3-5.91,15.36-6.77a27.22,27.22,0,0,1,19.75,3.9c5.67,3.68,10.91,9,17,17.17l13.24-9.82a120.35,120.35,0,0,0-8-9.75l8-5.9c-4.53-6.11-11.65-14.95-21.24-21.17-10.1-6.57-21.37-9.21-31.73-7.44-7.82,1.34-14.61,5.1-20.6,8.42-1.07.6-2.15,1.19-3.22,1.77-5,2.71-11.52,5.71-17.1,4.88-3.2-.48-6.61-2.25-10.21-4.13-2.2-1.15-4.48-2.33-6.95-3.36a50.14,50.14,0,0,0-34.81-1.3c-11.21,3.74-19.86,10.3-27,21.95l-6.65,11.07Z" style="fill:#ffbe9d"></path><path d="M297.86,369.64s-.12-.13-.33-.39l-.93-1.18c-.83-1-2.05-2.54-3.68-4.44s-3.67-4.2-6.11-6.78-5.31-5.45-8.7-8.37a46.71,46.71,0,0,0-5.6-4.2,45.42,45.42,0,0,0-6.75-3.44,34.72,34.72,0,0,0-16.35-2.55,33.14,33.14,0,0,0-8.73,2.21,76.35,76.35,0,0,0-8.52,4.11c-5.63,3.07-11.43,6.61-18.13,8.36a25.8,25.8,0,0,1-10.14.69,32.51,32.51,0,0,1-9.35-3.19c-2.91-1.42-5.66-3-8.47-4.27a35.19,35.19,0,0,0-8.6-2.72,44,44,0,0,0-16.63.38,38.61,38.61,0,0,0-7.23,2.21,37.06,37.06,0,0,0-6,3.59,75.88,75.88,0,0,0-9.11,7.89,90.83,90.83,0,0,0-6.1,6.77c-1.59,1.94-2.7,3.54-3.45,4.62l-.82,1.26c-.18.28-.29.42-.29.42s.08-.16.25-.45l.77-1.29c.73-1.1,1.81-2.73,3.38-4.68a88.25,88.25,0,0,1,6-6.86,76.24,76.24,0,0,1,9.11-8,30.41,30.41,0,0,1,13.35-5.92,44,44,0,0,1,16.81-.43,35.68,35.68,0,0,1,8.72,2.74c2.83,1.29,5.59,2.85,8.48,4.26a32.3,32.3,0,0,0,9.2,3.14,25.4,25.4,0,0,0,9.94-.69c6.6-1.72,12.37-5.22,18-8.3A76.48,76.48,0,0,1,240.5,340a33.51,33.51,0,0,1,8.86-2.23,35.09,35.09,0,0,1,16.56,2.63,44.78,44.78,0,0,1,6.8,3.5,46.85,46.85,0,0,1,5.63,4.26,118.15,118.15,0,0,1,8.67,8.45c2.43,2.61,4.44,4.93,6.05,6.85s2.81,3.46,3.61,4.51l.89,1.21C297.77,369.49,297.86,369.64,297.86,369.64Z" style="fill:#263238"></path><path d="M292.39,356.13s-.12-.13-.33-.4l-.92-1.18c-.82-1-2-2.57-3.65-4.48a84.18,84.18,0,0,0-6.26-6.62,56.24,56.24,0,0,0-9.59-7.3A40.7,40.7,0,0,0,258.06,331a30.89,30.89,0,0,0-16.44,1.52c-5.56,2-10.86,5.34-16.57,8.36a57.9,57.9,0,0,1-9.07,3.9,27.87,27.87,0,0,1-10.06,1.46,26.92,26.92,0,0,1-9.82-2.65c-3-1.38-5.91-3-8.8-4.42a42.73,42.73,0,0,0-4.39-1.86,36.42,36.42,0,0,0-4.52-1.13,49.69,49.69,0,0,0-9-.75,57.92,57.92,0,0,0-16.53,2.44,27,27,0,0,0-6.77,3.33,54.48,54.48,0,0,0-5.59,4.23,86.49,86.49,0,0,0-14.08,15.78c-.72,1-1.34,1.94-1.85,2.77s-1,1.5-1.28,2.07l-.76,1.3c-.18.29-.28.43-.28.43a59.09,59.09,0,0,1,4-6.69,84.74,84.74,0,0,1,14-15.94,55.45,55.45,0,0,1,5.61-4.29,27.63,27.63,0,0,1,6.86-3.4A57.76,57.76,0,0,1,169.37,335a49,49,0,0,1,9.11.74,34.23,34.23,0,0,1,4.59,1.15,41.09,41.09,0,0,1,4.45,1.87c2.92,1.41,5.77,3,8.79,4.41a26.66,26.66,0,0,0,9.63,2.6,27.38,27.38,0,0,0,9.88-1.43,57.67,57.67,0,0,0,9-3.86c5.69-3,11-6.33,16.64-8.36a31.27,31.27,0,0,1,16.68-1.49,40.58,40.58,0,0,1,13.7,5.22,55.74,55.74,0,0,1,9.6,7.4,80.56,80.56,0,0,1,6.22,6.7c1.6,1.94,2.78,3.49,3.57,4.55l.89,1.21C292.3,356,292.39,356.13,292.39,356.13Z" style="fill:#263238"></path><path d="M293,373.48s-.11-.12-.3-.37l-.86-1.13-3.23-4.39c-1.4-1.9-3.13-4.23-5.27-6.81a49.83,49.83,0,0,0-8.1-7.95A42.48,42.48,0,0,0,263,346.77a32.47,32.47,0,0,0-15.59-.94c-5.47,1.07-10.74,3.78-16,6.72s-10.86,6.15-17.21,7.69a25.45,25.45,0,0,1-9.58.57,31.8,31.8,0,0,1-8.85-2.95c-2.76-1.32-5.37-2.78-8-4.05a41.36,41.36,0,0,0-23.67-3.91,33.51,33.51,0,0,0-13,4.23,49.06,49.06,0,0,0-9,7,64.6,64.6,0,0,0-5.79,6.35c-1.49,1.84-2.5,3.37-3.21,4.39l-.76,1.19c-.17.27-.27.4-.27.4a41,41,0,0,1,4.08-6.11,62.29,62.29,0,0,1,5.75-6.43,49.21,49.21,0,0,1,9-7.07A33.77,33.77,0,0,1,164,349.47a42.15,42.15,0,0,1,15.84.92,41.21,41.21,0,0,1,8.1,3c2.65,1.27,5.26,2.74,8,4a31,31,0,0,0,8.7,2.89,24.88,24.88,0,0,0,9.39-.56c6.25-1.51,11.77-4.7,17.08-7.63s10.64-5.67,16.2-6.74a32.79,32.79,0,0,1,15.8,1,42.39,42.39,0,0,1,12.39,6.18,48.59,48.59,0,0,1,8.1,8.06c2.13,2.6,3.83,4.95,5.21,6.87l3.15,4.45.82,1.16C293,373.34,293,373.48,293,373.48Z" style="fill:#263238"></path><path d="M288.57,375.68s-.1-.11-.28-.35-.46-.61-.8-1.06c-.69-.94-1.66-2.36-2.88-4.2a51.09,51.09,0,0,0-4.8-6.45,32.56,32.56,0,0,0-8.44-6.37,40.35,40.35,0,0,0-12-4.39,30.6,30.6,0,0,0-14.59.7c-5,1.47-9.83,4.14-14.79,6.91s-10.25,5.6-16.21,6.93a25,25,0,0,1-9,.43,29.67,29.67,0,0,1-8.27-2.79c-5.14-2.5-9.77-5.51-14.75-7.08a40.92,40.92,0,0,0-14.54-2.18,38.21,38.21,0,0,0-12.54,2.62,29.8,29.8,0,0,0-8.95,5.61,39,39,0,0,0-5.35,6c-1.32,1.77-2.23,3.23-2.86,4.21l-.71,1.12c-.16.25-.25.37-.25.37a48.66,48.66,0,0,1,3.66-5.82,38.72,38.72,0,0,1,5.32-6.07,30,30,0,0,1,9-5.74,38.57,38.57,0,0,1,12.67-2.7,41.31,41.31,0,0,1,14.7,2.15c5.05,1.58,9.73,4.62,14.82,7.08a29.32,29.32,0,0,0,8.13,2.74,24.62,24.62,0,0,0,8.79-.42c5.87-1.32,11.11-4.13,16.07-6.88s9.83-5.44,14.91-6.92a31.08,31.08,0,0,1,14.8-.67,40.93,40.93,0,0,1,12.14,4.49,32.89,32.89,0,0,1,8.48,6.5,48.93,48.93,0,0,1,4.75,6.54c1.19,1.86,2.14,3.29,2.79,4.25l.76,1.09C288.5,375.55,288.57,375.68,288.57,375.68Z" style="fill:#263238"></path><path d="M359.57,308a19.09,19.09,0,0,0-17.66-16.48c-11.28-.81-30.84,2.07-51.73,24.59C261,347.56,293,367,293,367s21.16,13.58,45.31-9.72C352.34,343.81,361.59,323.19,359.57,308Z" style="fill:#fff"></path><ellipse cx="309.2" cy="340.62" rx="21.79" ry="20.37" transform="translate(-69.84 79.93) rotate(-13.25)" style="fill:#575251"></ellipse><path d="M292.31,335.54a21.3,21.3,0,0,0-.13,12.35,5,5,0,0,1-.75-1.72,15,15,0,0,1,.1-8.93A5.26,5.26,0,0,1,292.31,335.54Z" style="fill:#fff"></path><path d="M280.67,385.46a17.77,17.77,0,0,0,1.47,5,5,5,0,0,0,3.46,3s3.73-.81,5.26-1.12c15.8-3.13,20.72-6.32,31.21-9.82a4.88,4.88,0,0,0,2-1.06,1.68,1.68,0,0,0,.3-2.1,2.36,2.36,0,0,0-1.25-.7c-7.26-2.18-15.09-1.83-22.49-.2S288,382.19,281,385.05" style="fill:#455a64"></path><path d="M322.27,382.35s12.22-6,15.42-8,6.28-4.42,6.28-4.42A64.78,64.78,0,0,0,331.9,358c-8.28-6.05-17.73-8.81-26.61-7.78-6.71.77-12.65,3.65-17.89,6.2l-2.82,1.35c-4.39,2.07-10.05,4.32-14.75,3.35-2.69-.55-5.51-2.22-8.48-4-1.82-1.07-3.7-2.19-5.75-3.18a42.11,42.11,0,0,0-53.5,14.69l5.64,3.72a55.83,55.83,0,0,0-7.08,9.13l13.3,9.1c3.7-5.6,9.34-10.94,15.81-12.71a26.61,26.61,0,0,1,19,2c1.52.73,3.07,1.65,4.71,2.62,3.66,2.17,7.81,4.63,12.81,5.65,8.75,1.79,17.33-.3,23.69-3.29l3-1.43c4.65-2.25,9-4.54,13.36-5a21.46,21.46,0,0,1,16,4" style="fill:#ffbe9d"></path><path d="M336.24,375s-.1-.08-.28-.26l-.79-.81c-.69-.71-1.72-1.76-3.1-3a35.81,35.81,0,0,0-5.38-4.22,35.12,35.12,0,0,0-8.15-3.9,27.81,27.81,0,0,0-10.8-1.36,36.33,36.33,0,0,0-12,3.53c-4.05,1.82-8.16,4.13-12.76,5.79a32.5,32.5,0,0,1-7.22,1.81,20.48,20.48,0,0,1-7.66-.46c-5.08-1.39-9.19-4.51-13.45-6.75a31.18,31.18,0,0,0-13.26-3.71,39.77,39.77,0,0,0-12.48,1.27,30.53,30.53,0,0,0-9.67,5,74.71,74.71,0,0,0-11.78,10.7c-1.25,1.41-2.16,2.56-2.76,3.35l-.67.91a2.44,2.44,0,0,1-.24.3,33.33,33.33,0,0,1,3.51-4.69A73,73,0,0,1,219,367.62a30.76,30.76,0,0,1,9.78-5.15,40,40,0,0,1,12.61-1.33,31.66,31.66,0,0,1,13.48,3.73c4.3,2.27,8.4,5.36,13.34,6.71a19.86,19.86,0,0,0,7.47.44,32.61,32.61,0,0,0,7.11-1.77c4.55-1.64,8.65-3.93,12.74-5.74A36.14,36.14,0,0,1,307.7,361a27.87,27.87,0,0,1,10.95,1.44,35.74,35.74,0,0,1,13.56,8.32c1.36,1.31,2.37,2.39,3,3.12l.75.84A2.29,2.29,0,0,1,336.24,375Z" style="fill:#263238"></path><path d="M340.07,372.75a2.83,2.83,0,0,1-.27-.3l-.74-.91c-.66-.79-1.63-2-2.94-3.4a42.62,42.62,0,0,0-13-10.06A31.16,31.16,0,0,0,312.29,355a26.22,26.22,0,0,0-6.29.24,34.9,34.9,0,0,0-6.45,1.83c-4.31,1.62-8.55,4-13.18,6a43.56,43.56,0,0,1-7.3,2.49,23.35,23.35,0,0,1-7.93.58,22.14,22.14,0,0,1-7.58-2.41c-2.34-1.17-4.51-2.54-6.68-3.8a34.82,34.82,0,0,0-6.64-3.13,32,32,0,0,0-6.88-1.49,39.22,39.22,0,0,0-13,.84,21.33,21.33,0,0,0-5.52,2,41.2,41.2,0,0,0-4.66,2.84,75.22,75.22,0,0,0-12.28,11c-1.31,1.46-2.24,2.65-2.87,3.46l-.69.95a1.86,1.86,0,0,1-.25.31,32.57,32.57,0,0,1,3.66-4.85A72.38,72.38,0,0,1,220,360.71a40.68,40.68,0,0,1,4.69-2.9,21.08,21.08,0,0,1,5.61-2.07,39.44,39.44,0,0,1,13.11-.9,32.94,32.94,0,0,1,7,1.49,35.5,35.5,0,0,1,6.73,3.17c2.19,1.26,4.36,2.62,6.67,3.78a21.65,21.65,0,0,0,7.4,2.35,22.87,22.87,0,0,0,7.75-.56,43.53,43.53,0,0,0,7.22-2.46c4.59-2,8.85-4.37,13.21-6a34.57,34.57,0,0,1,6.54-1.83,26.2,26.2,0,0,1,6.41-.22,31.13,31.13,0,0,1,11,3.19A42,42,0,0,1,336.27,368c1.3,1.47,2.24,2.66,2.87,3.48l.71.93A2.06,2.06,0,0,1,340.07,372.75Z" style="fill:#263238"></path><path d="M332.5,377.18l-.27-.24-.77-.73a26,26,0,0,0-3.14-2.54,34.79,34.79,0,0,0-13.54-5.83,25.66,25.66,0,0,0-10.16.15,50.74,50.74,0,0,0-11,4.13,92.87,92.87,0,0,1-12,5.24,29.69,29.69,0,0,1-6.82,1.38,19.3,19.3,0,0,1-7.14-.75c-4.69-1.43-8.54-4.29-12.51-6.41a34.83,34.83,0,0,0-12.25-4.06c-8.22-1.09-15.92.65-21.12,4.2a46.69,46.69,0,0,0-6.7,5.16,56,56,0,0,0-4.47,4.58c-1.15,1.33-2,2.42-2.54,3.16l-.62.85a2.31,2.31,0,0,1-.22.28,32.82,32.82,0,0,1,3.23-4.42,49.81,49.81,0,0,1,4.42-4.66,45.33,45.33,0,0,1,6.71-5.26c5.22-3.63,13-5.45,21.37-4.36a35.2,35.2,0,0,1,12.44,4.08c4,2.14,7.84,5,12.41,6.36s9.39.75,13.65-.61a94.32,94.32,0,0,0,12-5.19,50.48,50.48,0,0,1,11.12-4.12,26,26,0,0,1,10.31-.09,34.35,34.35,0,0,1,13.6,6,24.13,24.13,0,0,1,3.1,2.64c.32.32.57.58.73.76A2.14,2.14,0,0,1,332.5,377.18Z" style="fill:#263238"></path><path d="M328.6,379.82l-.29-.17-.82-.54c-.72-.48-1.8-1.15-3.24-1.92a34,34,0,0,0-5.47-2.34,29.69,29.69,0,0,0-7.71-1.46,27.18,27.18,0,0,0-9.39,1.31,75.67,75.67,0,0,0-10.09,4.3,68.24,68.24,0,0,1-11.26,4.68,22.18,22.18,0,0,1-13,.21c-4.32-1.44-7.93-4-11.56-6.14a37.6,37.6,0,0,0-11.17-4.5,32,32,0,0,0-20,1.85,26.2,26.2,0,0,0-6.51,4.37,36.77,36.77,0,0,0-4.07,4.34c-1,1.28-1.76,2.31-2.27,3-.24.33-.42.6-.57.8s-.2.27-.21.26a1.73,1.73,0,0,1,.17-.29l.53-.83c.47-.72,1.19-1.77,2.2-3.07a35.06,35.06,0,0,1,4-4.44,26.29,26.29,0,0,1,6.55-4.48,32.19,32.19,0,0,1,20.29-2A37.82,37.82,0,0,1,256,377.31c3.65,2.11,7.25,4.68,11.46,6.09s8.72.92,12.72-.21a69.13,69.13,0,0,0,11.2-4.62,72.6,72.6,0,0,1,10.17-4.28,26.9,26.9,0,0,1,9.53-1.26,29,29,0,0,1,7.78,1.55,32.92,32.92,0,0,1,5.48,2.43,37,37,0,0,1,3.2,2c.36.25.62.45.8.58S328.61,379.81,328.6,379.82Z" style="fill:#263238"></path><path d="M344.1,369.8a3.05,3.05,0,0,1-.28-.31l-.77-.93c-.34-.41-.75-.92-1.27-1.49s-1.1-1.27-1.8-2a49.86,49.86,0,0,0-13.47-10.29,43.18,43.18,0,0,0-11-3.89,31.83,31.83,0,0,0-13.35-.17,41.69,41.69,0,0,0-6.94,2.16c-2.31.93-4.58,2.07-6.89,3.24s-4.65,2.42-7.16,3.42a16.36,16.36,0,0,1-1.93.68c-.65.22-1.31.37-2,.54a24,24,0,0,1-4.08.71,10.56,10.56,0,0,1-4.86-.83c-1.52-.62-2.93-1.38-4.33-2.11-2.81-1.46-5.55-2.91-8.31-4.12A52.43,52.43,0,0,0,239.22,350h0a35.15,35.15,0,0,0-17.28,2.59,44.71,44.71,0,0,0-11.59,7.23,54.59,54.59,0,0,0-6.26,6.29c-.66.79-1.15,1.41-1.47,1.84l-.37.48a1.31,1.31,0,0,1-.13.16.9.9,0,0,1,.1-.18l.34-.51c.3-.44.77-1.08,1.42-1.88a50,50,0,0,1,6.19-6.41,44.7,44.7,0,0,1,11.62-7.38,35.62,35.62,0,0,1,17.48-2.69h0a52.26,52.26,0,0,1,16.61,4.4c2.79,1.22,5.54,2.67,8.35,4.13s5.67,3.18,8.92,2.88a24.67,24.67,0,0,0,4-.69c.65-.17,1.32-.32,1.94-.54a16.28,16.28,0,0,0,1.89-.66c2.47-1,4.8-2.23,7.12-3.39s4.6-2.32,6.93-3.25a42.4,42.4,0,0,1,7-2.17,32.35,32.35,0,0,1,13.54.22,43.7,43.7,0,0,1,11.12,4A53,53,0,0,1,344.1,369.8Z" style="fill:#263238"></path><path d="M266.4,369.32c-8.56-5.63-17.72-8.81-26.61-7.78-6.7.78-12.64,3.66-17.89,6.2-.94.45-1.87.91-2.81,1.35-4.4,2.07-10.05,4.32-14.75,3.35-2.7-.55-5.51-2.21-8.49-4-1.82-1.07-3.69-2.18-5.74-3.17a42.68,42.68,0,0,0-29.51-2.72c-9.7,2.66-17,7.08-22.59,15.48l6.29,3c5.35,2.9,12.74,5.48,20.95,7.92L188,393.82s13.16,2.43,17.63,2.86,15.47,1.13,15.47,1.13h21l19-1.17,16.65-1.95L286.8,393C283.38,387.22,274.43,374.6,266.4,369.32Z" style="fill:#ffbe9d"></path><path d="M277.45,394.51a2.51,2.51,0,0,1-.25-.28c-.17-.21-.41-.48-.7-.84l-2.71-3.21c-1.19-1.38-2.67-3.05-4.46-4.92a52.18,52.18,0,0,0-6.51-5.88,36.53,36.53,0,0,0-9.38-4.89,27.58,27.58,0,0,0-12-1.43,41,41,0,0,0-12.74,4.15c-4.24,2-8.55,4.33-13.37,5.78a27,27,0,0,1-7.31,1.26,19,19,0,0,1-7.13-1.14c-4.48-1.62-8.18-4.37-12-6.35a30.61,30.61,0,0,0-11.57-3.49,39,39,0,0,0-10.59.4,37.82,37.82,0,0,0-4.51,1,24.18,24.18,0,0,0-3.77,1.65,46.52,46.52,0,0,0-5.57,3.59c-1.47,1.08-2.57,2-3.31,2.59l-.84.69a1.44,1.44,0,0,1-.3.23s.08-.1.26-.27l.81-.73c.72-.64,1.8-1.56,3.25-2.67a45,45,0,0,1,5.56-3.68,23.91,23.91,0,0,1,3.81-1.71,34.45,34.45,0,0,1,4.55-1.09,38.8,38.8,0,0,1,10.69-.47,30.8,30.8,0,0,1,11.75,3.5c3.85,2,7.54,4.71,11.94,6.29a18.79,18.79,0,0,0,6.94,1.11,27.06,27.06,0,0,0,7.17-1.25c4.75-1.43,9-3.75,13.3-5.74a41.45,41.45,0,0,1,12.91-4.17,27.92,27.92,0,0,1,12.16,1.51,36.75,36.75,0,0,1,9.46,5,51,51,0,0,1,6.5,6c1.78,1.89,3.24,3.59,4.41,5s2,2.52,2.63,3.28l.66.87A1.37,1.37,0,0,1,277.45,394.51Z" style="fill:#263238"></path><path d="M278.72,390a2.21,2.21,0,0,1-.24-.31l-.66-1c-.59-.83-1.45-2-2.6-3.59a59.05,59.05,0,0,0-11.28-11.67,36.44,36.44,0,0,0-9.8-5.34,27.54,27.54,0,0,0-12.62-1.52c-4.5.54-9,2.43-13.39,4.56s-9.06,4.57-14.22,5.83a23.79,23.79,0,0,1-7.81.7,21.27,21.27,0,0,1-7.31-2.1c-4.51-2.16-8.36-5.1-12.58-6.76a33.31,33.31,0,0,0-12.56-2.23,39.32,39.32,0,0,0-11.05,1.65,32.4,32.4,0,0,0-8.11,4.38A64.13,64.13,0,0,0,149,377c-1.46,1.26-2.53,2.3-3.27,3l-.83.8-.29.26a1.69,1.69,0,0,1,.25-.3l.8-.84c.71-.72,1.76-1.78,3.2-3.07a64.12,64.12,0,0,1,5.47-4.42,32.63,32.63,0,0,1,8.16-4.49,39.68,39.68,0,0,1,11.16-1.74,33.77,33.77,0,0,1,12.75,2.23c4.3,1.68,8.17,4.62,12.61,6.73a20.66,20.66,0,0,0,7.15,2.05,23.56,23.56,0,0,0,7.63-.68c5.09-1.25,9.66-3.65,14.13-5.79s9-4,13.55-4.58a28.1,28.1,0,0,1,12.83,1.59,36.64,36.64,0,0,1,9.87,5.46,57.83,57.83,0,0,1,11.22,11.84c1.14,1.56,2,2.81,2.52,3.65.27.41.47.74.63,1A2,2,0,0,1,278.72,390Z" style="fill:#263238"></path><path d="M272.24,395.3,272,395l-.6-.79c-.52-.7-1.29-1.72-2.34-3a38.45,38.45,0,0,0-4.16-4.32,34.09,34.09,0,0,0-6.59-4.37,32.3,32.3,0,0,0-9-3.13,25.69,25.69,0,0,0-10.9.3,57.35,57.35,0,0,0-11.33,4.46,73.27,73.27,0,0,1-12.16,5.09,22.3,22.3,0,0,1-13.11.14c-4.11-1.35-7.54-3.71-10.91-5.63a36.94,36.94,0,0,0-10.17-4.14,35.93,35.93,0,0,0-9.54-.92,35.54,35.54,0,0,0-7.82,1.19,25.22,25.22,0,0,0-5.51,2.31c-1.44.79-2.51,1.5-3.23,2l-.82.56a1.22,1.22,0,0,1-.29.18,1.74,1.74,0,0,1,.26-.22c.17-.14.43-.34.79-.6a32.67,32.67,0,0,1,3.19-2.08,25,25,0,0,1,5.53-2.41,35.07,35.07,0,0,1,7.89-1.28,35.65,35.65,0,0,1,20,5c3.4,1.91,6.82,4.25,10.84,5.56a21.87,21.87,0,0,0,12.81-.16,74.7,74.7,0,0,0,12.08-5.05,57,57,0,0,1,11.43-4.46,26.12,26.12,0,0,1,11.1-.27,32.75,32.75,0,0,1,9.13,3.23,34.42,34.42,0,0,1,6.61,4.48,37.55,37.55,0,0,1,4.12,4.41c1,1.29,1.78,2.34,2.28,3.06l.55.82A1.12,1.12,0,0,1,272.24,395.3Z" style="fill:#263238"></path><path d="M268,396s-.08-.07-.21-.22l-.6-.66a25.6,25.6,0,0,0-2.5-2.37,36.77,36.77,0,0,0-11-6.16,28.67,28.67,0,0,0-8.53-1.62,26.69,26.69,0,0,0-9.81,1.57A88.39,88.39,0,0,0,225.21,391a60.66,60.66,0,0,1-11.13,4.44,21.74,21.74,0,0,1-11.94.09c-3.76-1.16-6.91-3.27-9.94-5.09-1.51-.92-3-1.81-4.48-2.57a38,38,0,0,0-4.47-1.91,34.87,34.87,0,0,0-8.5-1.88,32.64,32.64,0,0,0-12.51,1.24,26.84,26.84,0,0,0-3.23,1.2l-.82.38a1.09,1.09,0,0,1-.28.11,2.53,2.53,0,0,1,.26-.16c.18-.1.44-.25.8-.42a23.76,23.76,0,0,1,3.21-1.31,32.08,32.08,0,0,1,12.6-1.41,34.68,34.68,0,0,1,8.61,1.84,38,38,0,0,1,4.53,1.91c1.52.76,3,1.65,4.53,2.57,3,1.82,6.18,3.89,9.84,5a21.22,21.22,0,0,0,11.66-.11,59.93,59.93,0,0,0,11-4.39,89.71,89.71,0,0,1,10.23-4.46,27.48,27.48,0,0,1,10-1.55,29.12,29.12,0,0,1,8.63,1.71,36,36,0,0,1,11,6.35,23,23,0,0,1,2.45,2.46c.25.3.44.54.56.7A1.29,1.29,0,0,1,268,396Z" style="fill:#263238"></path><path d="M283.46,388.48l-.25-.35-.7-1.05c-.58-.93-1.52-2.27-2.73-4l-2.13-2.77c-.84-1-1.69-2.06-2.72-3.13a51.86,51.86,0,0,0-7.44-6.8,43.86,43.86,0,0,0-10.66-5.91l-1.56-.58-1.61-.5c-1.08-.37-2.21-.59-3.34-.87a35.49,35.49,0,0,0-7.14-.88,29.2,29.2,0,0,0-7.49.85,41.72,41.72,0,0,0-7.47,2.55c-2.46,1.08-4.9,2.35-7.38,3.62A42.83,42.83,0,0,1,213,372a26.71,26.71,0,0,1-5.6,1,11.53,11.53,0,0,1-5.48-1.22c-3.33-1.59-6.43-3.37-9.58-4.86a61.75,61.75,0,0,0-9.41-3.64,43.09,43.09,0,0,0-9.19-1.76h0a36.57,36.57,0,0,0-16.59,2.08,40.72,40.72,0,0,0-11.26,6.44,45.12,45.12,0,0,0-6,5.83c-.65.73-1.1,1.32-1.41,1.71l-.34.45a.83.83,0,0,1-.13.15s.13-.23.42-.64.72-1,1.35-1.76a43.06,43.06,0,0,1,6-5.94A40.25,40.25,0,0,1,157,363.3a36.72,36.72,0,0,1,16.77-2.18h0a43.52,43.52,0,0,1,9.31,1.75,60.72,60.72,0,0,1,9.5,3.65c3.16,1.49,6.29,3.28,9.57,4.84a10.87,10.87,0,0,0,5.24,1.17,26.59,26.59,0,0,0,5.5-1,43.07,43.07,0,0,0,7.74-3.29c2.49-1.26,4.93-2.53,7.42-3.61a41.82,41.82,0,0,1,7.55-2.58,30.23,30.23,0,0,1,7.62-.84,32,32,0,0,1,3.69.27c1.2.18,2.38.39,3.54.64s2.28.52,3.37.89l1.63.51,1.56.6a44,44,0,0,1,10.73,6,52.74,52.74,0,0,1,7.44,6.9c1,1.09,1.87,2.2,2.69,3.18s1.47,1.95,2.1,2.8c1.19,1.73,2.1,3.08,2.66,4l.66,1.07A2.23,2.23,0,0,1,283.46,388.48Z" style="fill:#263238"></path><path d="M223.71,281.42a43,43,0,0,1-6.59.66,41.33,41.33,0,0,1-6.61.14,42.17,42.17,0,0,1,6.58-.66A41.45,41.45,0,0,1,223.71,281.42Z" style="fill:#263238"></path><path d="M167.64,289.72s-.33.12-1,.32l-2.93.88c-2.57.79-6.35,2-11.13,3.81a133.66,133.66,0,0,0-16.9,7.74,94.79,94.79,0,0,0-9.82,6.18,64.91,64.91,0,0,0-9.76,8.55,48.17,48.17,0,0,0-4.34,5.46,36,36,0,0,0-3.43,6.41,27.36,27.36,0,0,0-1.75,15.13,29.1,29.1,0,0,0,2.41,7.73,36.18,36.18,0,0,0,2,3.66c.38.58.72,1.2,1.14,1.77l1.27,1.71a59.48,59.48,0,0,0,12.8,12c9.83,7,21.52,12.23,34,16.27a217.63,217.63,0,0,0,39.66,8.62c6.91.86,13.77,1.48,20.55,1.8s13.47.41,20,.28,13-.52,19.31-1.09,12.43-1.38,18.39-2.35c23.78-3.95,44.76-11.06,60.21-20.83,1.94-1.19,3.74-2.5,5.5-3.76l2.52-2c.84-.64,1.58-1.38,2.36-2.05a51.41,51.41,0,0,0,7.72-8.61,36.68,36.68,0,0,0,4.53-9,29.75,29.75,0,0,0,1.4-8.32,28.57,28.57,0,0,0-2.27-11.43c-.51-1.24-1-2.15-1.29-2.76s-.49-.93-.49-.93a27.15,27.15,0,0,1,1.88,3.65A28.34,28.34,0,0,1,362.58,340a29.83,29.83,0,0,1-1.36,8.4,37.55,37.55,0,0,1-4.53,9.05,52.36,52.36,0,0,1-7.74,8.69c-.78.67-1.52,1.41-2.36,2.06l-2.53,2c-1.77,1.27-3.57,2.59-5.52,3.79-15.48,9.85-36.5,17-60.33,21-6,1-12.11,1.77-18.41,2.38s-12.77.93-19.35,1.1-13.27,0-20.06-.27-13.67-.94-20.59-1.8A217.9,217.9,0,0,1,160,387.79c-12.5-4.07-24.23-9.33-34.11-16.37a59.87,59.87,0,0,1-12.88-12.07l-1.28-1.73c-.43-.57-.77-1.2-1.15-1.8a33.32,33.32,0,0,1-2-3.7,29.61,29.61,0,0,1-2.44-7.85,27.77,27.77,0,0,1,1.8-15.35,36.56,36.56,0,0,1,3.49-6.48,48,48,0,0,1,4.39-5.49,64,64,0,0,1,9.84-8.57,93.44,93.44,0,0,1,9.87-6.17,131.76,131.76,0,0,1,17-7.67c4.79-1.78,8.59-3,11.17-3.72,1.29-.39,2.28-.65,2.94-.84Z" style="fill:#263238"></path><path d="M259.14,397.24a8.27,8.27,0,0,1-1.25-.65c-.8-.45-1.93-1.11-3.37-1.86a29.19,29.19,0,0,0-5.22-2.19,17.37,17.37,0,0,0-6.81-.68c-4.92.47-9,2.6-11.81,4.14-1.41.79-2.54,1.47-3.32,1.93a7,7,0,0,1-1.24.68,7.19,7.19,0,0,1,1.13-.85c.75-.51,1.85-1.24,3.25-2.08a29.17,29.17,0,0,1,11.94-4.34,17.34,17.34,0,0,1,7,.74,28.15,28.15,0,0,1,5.26,2.32c1.42.8,2.53,1.51,3.29,2A6.87,6.87,0,0,1,259.14,397.24Z" style="fill:#263238"></path><path d="M164,329.28c0,.05-.84.08-2.34.25a39,39,0,0,0-6.25,1.27,53.51,53.51,0,0,0-18.57,9.64,68.25,68.25,0,0,0-13.74,15.87c-1.46,2.28-2.57,4.17-3.31,5.48l-.87,1.51a2.37,2.37,0,0,1-.33.52,2.57,2.57,0,0,1,.24-.56c.17-.36.42-.9.78-1.56.69-1.35,1.75-3.28,3.18-5.58A65.2,65.2,0,0,1,136.53,340a52.05,52.05,0,0,1,18.8-9.59,34.88,34.88,0,0,1,6.33-1.11c.76-.09,1.35-.05,1.75-.07A2.86,2.86,0,0,1,164,329.28Z" style="fill:#263238"></path><path d="M132.59,324.24a16.68,16.68,0,0,0-9.48,7.37,22.29,22.29,0,0,0-2.82,7.24,42,42,0,0,0,0,14.2c.26,1.82.5,3.28.66,4.3a9.07,9.07,0,0,1,.2,1.58,10.72,10.72,0,0,1-.4-1.54c-.22-1-.52-2.47-.82-4.28a39.48,39.48,0,0,1-.13-14.36,22,22,0,0,1,2.92-7.4,17.75,17.75,0,0,1,4.43-4.74,14.52,14.52,0,0,1,3.89-2,11.87,11.87,0,0,1,1.15-.3A1.21,1.21,0,0,1,132.59,324.24Z" style="fill:#263238"></path><path d="M130.87,332.77c.06.07-.85.7-2,2a11.12,11.12,0,0,0-1.7,2.5,12.71,12.71,0,0,0-1.11,3.53,25.49,25.49,0,0,0,0,6.79,16.83,16.83,0,0,1,.25,2.84,14.39,14.39,0,0,1-.61-2.79,21.53,21.53,0,0,1-.15-6.93,12.11,12.11,0,0,1,1.19-3.66,10.7,10.7,0,0,1,1.86-2.53,11.25,11.25,0,0,1,1.6-1.37C130.61,332.87,130.85,332.74,130.87,332.77Z" style="fill:#263238"></path><path d="M286.68,294.31a3,3,0,0,1-.67-.23c-.44-.16-1.06-.44-1.89-.73a46.6,46.6,0,0,0-7.16-2,41.42,41.42,0,0,0-10.95-.61,36.22,36.22,0,0,0-6.39,1,34.88,34.88,0,0,0-6.56,2.3c-4.34,2-8.08,4.68-11.78,6.62a29.37,29.37,0,0,1-10.49,3.56,14.47,14.47,0,0,1-7.35-1.13,14.12,14.12,0,0,1-1.81-.94,3.81,3.81,0,0,1-.59-.4c0-.05.85.49,2.48,1.15a14.74,14.74,0,0,0,7.23,1,29.75,29.75,0,0,0,10.3-3.62c3.66-1.94,7.39-4.65,11.79-6.68a34.43,34.43,0,0,1,6.66-2.31,36.22,36.22,0,0,1,6.48-1,40.48,40.48,0,0,1,11,.73,41.68,41.68,0,0,1,7.16,2.13c.82.32,1.43.64,1.86.82A3.67,3.67,0,0,1,286.68,294.31Z" style="fill:#263238"></path><path d="M267,157.23a10.78,10.78,0,0,1,.62,1.34,13.69,13.69,0,0,1,.87,4.15,21.23,21.23,0,0,1-.79,6.65,45.77,45.77,0,0,1-3.27,8.26,74.23,74.23,0,0,0-4.3,9.8,21.21,21.21,0,0,0-1.08,5.8,17.8,17.8,0,0,0,.89,6.16c1.3,4.12,3.9,7.92,6.27,12a38.53,38.53,0,0,1,3.16,6.52,18.59,18.59,0,0,1,1.11,7.39,23.59,23.59,0,0,1-1.79,7.25,53.55,53.55,0,0,1-3.25,6.47c-2.38,4.09-4.79,8-6.22,12a21.19,21.19,0,0,0-1.29,6.12,15.59,15.59,0,0,0,.79,5.81,31.21,31.21,0,0,0,5.4,9.14c2,2.57,3.94,4.87,5.33,7.09a23.45,23.45,0,0,1,2.91,6,13.57,13.57,0,0,1,.65,4.18,8.81,8.81,0,0,1-.11,1.47s0-.51,0-1.47a14.07,14.07,0,0,0-.73-4.12,23.86,23.86,0,0,0-3-5.94c-1.41-2.19-3.33-4.45-5.38-7a31.55,31.55,0,0,1-5.52-9.23,16.24,16.24,0,0,1-.84-6,22.32,22.32,0,0,1,1.29-6.25c1.44-4.15,3.88-8.07,6.24-12.14a55.56,55.56,0,0,0,3.21-6.41,23.19,23.19,0,0,0,1.75-7.1,18.16,18.16,0,0,0-1.08-7.18,38.16,38.16,0,0,0-3.11-6.43c-2.35-4.07-5-7.9-6.29-12.11a18.48,18.48,0,0,1-.89-6.33,22.2,22.2,0,0,1,1.13-5.91,73,73,0,0,1,4.38-9.83,47,47,0,0,0,3.32-8.17,21.06,21.06,0,0,0,.86-6.57A15.16,15.16,0,0,0,267,157.23Z" style="fill:#263238"></path><path d="M258.29,158.92a9.6,9.6,0,0,1,.42,1.4,14.35,14.35,0,0,1,.37,4.16,24.08,24.08,0,0,1-1.27,6.5,60.07,60.07,0,0,1-3.48,8.05,54.29,54.29,0,0,0-4,9.75,19.38,19.38,0,0,0-.7,5.78,19.88,19.88,0,0,0,1.3,6c1.55,4,4.11,7.7,6.42,11.77a32.41,32.41,0,0,1,2.93,6.53,17.76,17.76,0,0,1,.7,7.34,25,25,0,0,1-2,7.09,62.06,62.06,0,0,1-3.29,6.34c-2.37,4-4.71,7.88-6,11.94a17.52,17.52,0,0,0-.2,11.79,33.36,33.36,0,0,0,5.44,9,83,83,0,0,1,5.26,7,23.89,23.89,0,0,1,2.85,6,13.44,13.44,0,0,1,.62,4.14,8.52,8.52,0,0,1-.11,1.45s0-.5,0-1.45a13.7,13.7,0,0,0-.71-4.08,23.91,23.91,0,0,0-2.89-5.87c-1.39-2.17-3.27-4.41-5.3-6.94a33.26,33.26,0,0,1-5.56-9.06,17.92,17.92,0,0,1,.14-12.08c1.34-4.13,3.71-8,6.06-12s4.64-8.36,5.23-13.24a17.1,17.1,0,0,0-.67-7.13,32.1,32.1,0,0,0-2.88-6.43c-2.29-4-4.87-7.79-6.42-11.85a20.16,20.16,0,0,1-1.31-6.17,19.49,19.49,0,0,1,.73-5.91,53.18,53.18,0,0,1,4.09-9.81,61.33,61.33,0,0,0,3.53-8,24.38,24.38,0,0,0,1.35-6.42,15.72,15.72,0,0,0-.27-4.13C258.42,159.41,258.26,158.93,258.29,158.92Z" style="fill:#263238"></path><path d="M249.49,161.89a9.47,9.47,0,0,1,.13,1.43,19.53,19.53,0,0,1-.34,4.08,33,33,0,0,1-1.88,6.2c-.94,2.35-2.29,4.9-3.64,7.76a36.24,36.24,0,0,0-3.35,9.72,16.74,16.74,0,0,0,0,5.69,23.55,23.55,0,0,0,1.89,5.74c1.77,3.78,4.33,7.39,6.47,11.45a26.12,26.12,0,0,1,2.47,6.56,18.72,18.72,0,0,1,.41,3.59,21.38,21.38,0,0,1-.36,3.64c-1,4.83-3.41,9-5.69,13s-4.53,7.76-5.7,11.76a19.08,19.08,0,0,0-.85,6,15.77,15.77,0,0,0,1.16,5.56,36.09,36.09,0,0,0,5.48,8.7,75.87,75.87,0,0,1,5.12,6.88,23.19,23.19,0,0,1,2.74,5.87,13.31,13.31,0,0,1,.59,4.05,9.72,9.72,0,0,1-.11,1.42s0-.49,0-1.42a13.79,13.79,0,0,0-.67-4,23.85,23.85,0,0,0-2.79-5.78,77.35,77.35,0,0,0-5.17-6.8,36.35,36.35,0,0,1-5.59-8.77,16.31,16.31,0,0,1-1.22-5.7,19.34,19.34,0,0,1,.85-6.12c1.17-4.09,3.4-8,5.72-11.89s4.67-8.09,5.62-12.8a20.22,20.22,0,0,0,.35-3.54,19.22,19.22,0,0,0-.39-3.48,25.52,25.52,0,0,0-2.42-6.43c-2.11-4-4.67-7.65-6.45-11.48a24.43,24.43,0,0,1-1.92-5.87,17.29,17.29,0,0,1,0-5.83,36.26,36.26,0,0,1,3.44-9.82c1.39-2.86,2.75-5.39,3.71-7.71a34.09,34.09,0,0,0,2-6.13,20.45,20.45,0,0,0,.43-4C249.52,162.39,249.46,161.9,249.49,161.89Z" style="fill:#263238"></path><path d="M240.12,164.36a10.68,10.68,0,0,1-.07,1.51,25.19,25.19,0,0,1-.88,4.24,43.93,43.93,0,0,1-2.5,6.39c-1.14,2.41-2.57,5.1-3.84,8.2a23.24,23.24,0,0,0-2,10.59c.34,3.92,2.16,7.8,4.44,11.58s4.94,7.72,6.31,12.45c.14.6.3,1.19.42,1.8s.17,1.23.23,1.85a18.26,18.26,0,0,1-.14,3.76,26.92,26.92,0,0,1-2.27,7.29c-2.14,4.7-5.08,8.81-7.17,13.14a31,31,0,0,0-2.45,6.6,17.4,17.4,0,0,0-.33,6.68,18.53,18.53,0,0,0,2.15,6,40.06,40.06,0,0,0,3.39,5.05c1.21,1.56,2.41,3,3.55,4.47a31.83,31.83,0,0,1,3.1,4.3,15.18,15.18,0,0,1,1.94,8.81,26.36,26.36,0,0,1-1.62,6.67c-.38.86-.71,1.62-1,2.29s-.61,1.19-.84,1.63l-.53,1a1.5,1.5,0,0,1-.2.33,3.45,3.45,0,0,1,.15-.35l.49-1c.21-.44.5-1,.79-1.64s.59-1.44.95-2.31a26.48,26.48,0,0,0,1.52-6.61,14.92,14.92,0,0,0-2-8.61,32,32,0,0,0-3.09-4.23c-1.15-1.42-2.36-2.89-3.58-4.46a40.83,40.83,0,0,1-3.45-5.09,18.84,18.84,0,0,1-2.23-6.15,18.09,18.09,0,0,1,.32-6.86,32,32,0,0,1,2.48-6.72c2.11-4.38,5.05-8.48,7.16-13.13a26.94,26.94,0,0,0,2.23-7.15,18.62,18.62,0,0,0,.14-3.65c-.06-.6-.15-1.2-.23-1.79s-.27-1.17-.4-1.75c-1.33-4.62-4-8.51-6.23-12.34s-4.13-7.77-4.46-11.79a23.5,23.5,0,0,1,2.12-10.77c1.3-3.11,2.75-5.79,3.92-8.19a45.49,45.49,0,0,0,2.57-6.32,27.6,27.6,0,0,0,1-4.2c.06-.49.11-.86.13-1.11S240.12,164.36,240.12,164.36Z" style="fill:#263238"></path><path d="M230.82,301s.34-.39.9-1.21a18.63,18.63,0,0,0,2-3.84,25.91,25.91,0,0,0,.94-3c.14-.55.27-1.13.38-1.74a10,10,0,0,0,.09-1.91,18,18,0,0,0-2.76-8.5,43.89,43.89,0,0,0-3-4.34L225.77,272a43.83,43.83,0,0,1-3.5-5.09,19.32,19.32,0,0,1-2.3-6.16,17.5,17.5,0,0,1,.25-6.9,31.18,31.18,0,0,1,2.45-6.76c2.11-4.41,5.06-8.53,7.19-13.19a27,27,0,0,0,2.26-7.19,18.85,18.85,0,0,0,.14-3.67c-.06-.6-.15-1.2-.23-1.8s-.27-1.18-.4-1.76c-1.34-4.64-4.06-8.54-6.28-12.41s-4.12-7.82-4.43-11.86a24,24,0,0,1,2.22-10.81c1.33-3.12,2.79-5.81,4-8.23s2.1-4.52,2.82-6.26,1.23-3.12,1.53-4.06c.15-.48.26-.84.32-1.08a1.61,1.61,0,0,1,.12-.37s0,.13-.07.38a9.85,9.85,0,0,1-.27,1.1c-.27,1-.74,2.35-1.44,4.11s-1.6,3.88-2.75,6.31-2.57,5.13-3.87,8.24a23.69,23.69,0,0,0-2.13,10.64c.32,3.93,2.12,7.85,4.41,11.65s5,7.76,6.36,12.51c.14.6.3,1.2.42,1.81s.17,1.23.23,1.85a18.4,18.4,0,0,1-.14,3.78,27.15,27.15,0,0,1-2.3,7.33c-2.15,4.73-5.11,8.85-7.2,13.2a31.35,31.35,0,0,0-2.43,6.65,17.31,17.31,0,0,0-.26,6.71,18.63,18.63,0,0,0,2.23,6,42.59,42.59,0,0,0,3.44,5.05l3.56,4.52a43.89,43.89,0,0,1,3,4.4,18.36,18.36,0,0,1,2.74,8.67,10.59,10.59,0,0,1-.12,2c-.12.61-.26,1.2-.41,1.76a23.81,23.81,0,0,1-1,3,17.22,17.22,0,0,1-2.07,3.83A7.16,7.16,0,0,1,230.82,301Z" style="fill:#263238"></path><path d="M70.54,155.16h0a3.64,3.64,0,0,0,3.51,3.75l376.5,12.5a9.28,9.28,0,0,0,9.58-9h0a9.27,9.27,0,0,0-9.24-9.58L331,152.47l-256.77-.83A3.64,3.64,0,0,0,70.54,155.16Z" style="fill:#eb996e"></path><polygon points="329.82 167.4 330.96 152.47 384.32 152.64 383.77 169.19 329.82 167.4" style="fill:#575251"></polygon><polygon points="405.86 169.93 396.77 169.63 397.33 152.69 406.43 152.71 405.86 169.93" style="fill:#575251"></polygon><path d="M417.34,152.75l-.58,17.54,33.91,1.25a9.28,9.28,0,0,0,9.46-9v-.13a9.27,9.27,0,0,0-9.24-9.58Z" style="fill:#575251"></path><path d="M70.54,155.16a3.44,3.44,0,0,1,.61-1.94,3.63,3.63,0,0,1,2-1.47,5,5,0,0,1,1.62-.15h1.87l23.13,0,85.1.2,126.21.35,74.52.22,39.42.13,20.16.06,5.09,0a12.54,12.54,0,0,1,2.58.21,9.84,9.84,0,0,1,2.46.91,9.53,9.53,0,0,1-.38,17,10,10,0,0,1-2.49.79,13.39,13.39,0,0,1-2.6.11l-5.08-.17-20.15-.67-39.41-1.31L310.72,167l-126.15-4.25-85-2.9L76.41,159,74.55,159a4.67,4.67,0,0,1-1.62-.24,3.68,3.68,0,0,1-1.91-1.6,3.58,3.58,0,0,1-.47-1.46,2.79,2.79,0,0,1,0-.51,3.88,3.88,0,0,0,.53,1.94A3.61,3.61,0,0,0,73,158.66a4.71,4.71,0,0,0,1.59.22l1.86.05,23.13.72,85,2.74,126.15,4.14,74.5,2.46,39.41,1.3,20.16.67,5.08.17a12.85,12.85,0,0,0,2.49-.1,9.4,9.4,0,0,0,2.36-.75,9,9,0,0,0,.35-16.1,9.44,9.44,0,0,0-2.31-.86,12,12,0,0,0-2.48-.2l-5.09,0L425,153l-39.42-.13-74.53-.25-126.2-.47-85.1-.35-23.13-.13H74.79a5.47,5.47,0,0,0-1.6.13,3.61,3.61,0,0,0-2,1.43A3.93,3.93,0,0,0,70.54,155.16Z" style="fill:#263238"></path><path d="M227.19,164.36s9.57,4.74,26.94,6,23-4.71,23-4.71Z" style="opacity:0.30000000000000004"></path><path d="M381.21,221.86a2.51,2.51,0,1,1-2.5-2.5A2.51,2.51,0,0,1,381.21,221.86Z" style="fill:#263238"></path><path d="M72.37,302a2.51,2.51,0,1,1-2.5-2.5A2.5,2.5,0,0,1,72.37,302Z" style="fill:#263238"></path><path d="M401.23,350a2.51,2.51,0,1,1-2.51-2.5A2.51,2.51,0,0,1,401.23,350Z" style="fill:#263238"></path><path d="M187.59,221.86a2.51,2.51,0,1,1-2.5-2.5A2.51,2.51,0,0,1,187.59,221.86Z" style="fill:#263238"></path><path d="M209.73,127.45a2.51,2.51,0,1,1-2.5-2.5A2.5,2.5,0,0,1,209.73,127.45Z" style="fill:#263238"></path><path d="M168.87,348.9a2.35,2.35,0,1,1-2.35-2.35A2.35,2.35,0,0,1,168.87,348.9Z" style="fill:#263238"></path><path d="M195.31,374.8a2.35,2.35,0,1,1-2.35-2.35A2.35,2.35,0,0,1,195.31,374.8Z" style="fill:#263238"></path><path d="M234.78,344.31a2.35,2.35,0,1,1-2.35-2.35A2.35,2.35,0,0,1,234.78,344.31Z" style="fill:#263238"></path><path d="M235.1,379.21c.66,1.25-.74,3.29-3.13,4.54s-4.86,1.26-5.52,0a11,11,0,0,0,.75,1.44c.66,1.26,3.14,1.26,5.53,0s3.79-3.29,3.12-4.54A13,13,0,0,0,235.1,379.21Z" style="fill:#455a64"></path><path d="M230.33,380.64c1.91-1,3.87-1.2,4.92-.6a1.46,1.46,0,0,0-.15-.83c-.66-1.26-3.13-1.26-5.52,0s-3.79,3.29-3.13,4.55a1.51,1.51,0,0,0,.6.6C227.15,383.15,228.42,381.64,230.33,380.64Z" style="fill:#455a64"></path><path d="M260,337c-.17,1.41-2.47,2.3-5.15,2s-4.72-1.71-4.56-3.12a12.2,12.2,0,0,0-.19,1.61c-.16,1.41,1.88,2.81,4.56,3.13s5-.58,5.15-2A14.89,14.89,0,0,0,260,337Z" style="fill:#455a64"></path><path d="M255.3,335.49c2.14.25,3.87,1.19,4.39,2.28A1.46,1.46,0,0,0,260,337c.16-1.41-1.87-2.81-4.55-3.12s-5,.58-5.16,2a1.53,1.53,0,0,0,.16.83C251.25,335.76,253.15,335.24,255.3,335.49Z" style="fill:#455a64"></path><path d="M243.78,320.58c-.17,1.41-2.47,2.3-5.15,2s-4.72-1.72-4.55-3.13a9.69,9.69,0,0,0-.19,1.62c-.17,1.41,1.87,2.81,4.55,3.12s5-.57,5.15-2A15.19,15.19,0,0,0,243.78,320.58Z" style="fill:#455a64"></path><path d="M239,319.07c2.14.25,3.87,1.2,4.39,2.29a1.53,1.53,0,0,0,.35-.78c.16-1.41-1.87-2.81-4.55-3.12s-5,.57-5.15,2a1.45,1.45,0,0,0,.15.84C235,319.34,236.89,318.82,239,319.07Z" style="fill:#455a64"></path><path d="M265.13,300c.73,1.23-.57,3.33-2.89,4.7s-4.8,1.5-5.52.27a11.71,11.71,0,0,0,.83,1.4c.72,1.23,3.19,1.11,5.51-.27s3.62-3.47,2.9-4.7A12.28,12.28,0,0,0,265.13,300Z" style="fill:#455a64"></path><path d="M260.45,301.62c1.85-1.09,3.8-1.39,4.88-.84a1.48,1.48,0,0,0-.2-.83c-.72-1.22-3.19-1.1-5.51.27s-3.62,3.48-2.9,4.7a1.45,1.45,0,0,0,.63.57C257.39,304.29,258.59,302.72,260.45,301.62Z" style="fill:#455a64"></path><path d="M149.57,169.5c1,1.6-.75,4.36-3.8,6.16s-6.29,2-7.24.36a15.48,15.48,0,0,0,1.09,1.83c.95,1.61,4.19,1.45,7.23-.35s4.75-4.56,3.81-6.17A16.66,16.66,0,0,0,149.57,169.5Z" style="fill:#455a64"></path><path d="M143.42,171.69c2.44-1.44,5-1.83,6.41-1.11a2,2,0,0,0-.26-1.08c-.95-1.61-4.19-1.45-7.23.35s-4.75,4.56-3.81,6.17a2,2,0,0,0,.83.75C139.41,175.18,141,173.13,143.42,171.69Z" style="fill:#455a64"></path><path d="M127,242.18c-.79,2.58-5.4,3.47-10.3,2s-8.24-4.79-7.46-7.37a20.7,20.7,0,0,0-.9,3c-.78,2.58,2.56,5.88,7.46,7.36s9.52.6,10.3-2A26.47,26.47,0,0,0,127,242.18Z" style="fill:#455a64"></path><path d="M118.68,237.77c3.92,1.19,6.83,3.54,7.45,5.75a2.9,2.9,0,0,0,.91-1.34c.78-2.58-2.56-5.88-7.47-7.36s-9.51-.6-10.29,2a2.88,2.88,0,0,0,0,1.62C111,236.92,114.76,236.58,118.68,237.77Z" style="fill:#455a64"></path><path d="M387.22,284c2.12-1.31,5.85.89,8.33,4.91s2.79,8.34.68,9.64a19.69,19.69,0,0,0,2.42-1.49c2.12-1.31,1.82-5.63-.67-9.65s-6.22-6.22-8.34-4.91A23.85,23.85,0,0,0,387.22,284Z" style="fill:#455a64"></path><path d="M390.32,292.19c-2-3.21-2.58-6.62-1.66-8.52a2.6,2.6,0,0,0-1.44.37c-2.12,1.31-1.82,5.63.67,9.65s6.22,6.21,8.34,4.9a2.75,2.75,0,0,0,1-1.12C395.09,297.45,392.3,295.4,390.32,292.19Z" style="fill:#455a64"></path><path d="M246.1,98.88c1.29-2.13,5.61-1.88,9.66.55s6.29,6.15,5,8.28a19.25,19.25,0,0,0,1.47-2.44c1.29-2.13-1-5.84-5-8.28s-8.37-2.68-9.66-.55A24.29,24.29,0,0,0,246.1,98.88Z" style="fill:#455a64"></path><path d="M252.58,104.71c-3.24-1.95-5.32-4.71-5.36-6.82a2.57,2.57,0,0,0-1.12,1c-1.28,2.13,1,5.83,5,8.27s8.37,2.69,9.65.56a2.65,2.65,0,0,0,.36-1.45C259.22,107.21,255.82,106.66,252.58,104.71Z" style="fill:#455a64"></path><path d="M327.79,194c-1.26,2.38-6,2.38-10.47,0s-7.18-6.26-5.92-8.64a20.81,20.81,0,0,0-1.44,2.73c-1.26,2.38,1.39,6.25,5.91,8.64s9.22,2.4,10.48,0A27.41,27.41,0,0,0,327.79,194Z" style="fill:#455a64"></path><path d="M320.43,188.07c3.62,1.91,6,4.77,6.21,7.05a2.81,2.81,0,0,0,1.15-1.14c1.26-2.38-1.39-6.25-5.91-8.64s-9.22-2.4-10.48,0a2.85,2.85,0,0,0-.29,1.59C313.1,185.77,316.82,186.15,320.43,188.07Z" style="fill:#455a64"></path><path d="M256,374.83c-.6,1.28-3.07,1.39-5.51.24s-3.93-3.12-3.32-4.41a11,11,0,0,0-.7,1.47c-.6,1.29.89,3.26,3.33,4.41s4.91,1,5.51-.24A12.24,12.24,0,0,0,256,374.83Z" style="fill:#455a64"></path><path d="M252,371.89c1.95.92,3.29,2.37,3.44,3.57a1.56,1.56,0,0,0,.57-.63c.61-1.29-.88-3.26-3.32-4.41s-4.91-1-5.51.24a1.44,1.44,0,0,0-.12.85C248.05,370.86,250,371,252,371.89Z" style="fill:#455a64"></path><path d="M178.16,365.53c.18,1.41-1.85,2.82-4.53,3.15s-5-.54-5.16-1.95a9.84,9.84,0,0,0,.2,1.61c.17,1.41,2.48,2.29,5.16,2s4.71-1.74,4.53-3.15A12.36,12.36,0,0,0,178.16,365.53Z" style="fill:#455a64"></path><path d="M173.2,365.19c2.14-.26,4,.25,4.81,1.18a1.47,1.47,0,0,0,.15-.84c-.17-1.41-2.48-2.28-5.16-1.95s-4.71,1.74-4.53,3.15a1.53,1.53,0,0,0,.35.78C169.33,366.41,171.06,365.46,173.2,365.19Z" style="fill:#455a64"></path><path d="M132,348.57c.1.11-1.74,1.91-3.82,4.3s-3.62,4.45-3.75,4.37a20.5,20.5,0,0,1,3.36-4.71A20.25,20.25,0,0,1,132,348.57Z" style="fill:#fff"></path><path d="M139.54,350c.09.12-1.94,1.74-4.24,3.95s-4,4.17-4.13,4.07a28.41,28.41,0,0,1,8.37-8Z" style="fill:#fff"></path><path d="M148.16,351.62a16.15,16.15,0,0,1-2.94,2.82,16,16,0,0,1-3.27,2.41,15.93,15.93,0,0,1,2.94-2.81A16.33,16.33,0,0,1,148.16,351.62Z" style="fill:#fff"></path><path d="M151.75,355.53c.05.14-.84.6-1.89,1.23s-1.88,1.2-2,1.09.61-.88,1.71-1.54A3.86,3.86,0,0,1,151.75,355.53Z" style="fill:#fff"></path><path d="M156.69,359.39a32.43,32.43,0,0,1-3.27,1.24A33.32,33.32,0,0,1,150.2,362a7.45,7.45,0,0,1,3-1.87A7.55,7.55,0,0,1,156.69,359.39Z" style="fill:#fff"></path><path d="M160.71,365.28c0,.15-1.47.38-3.16,1.05s-3,1.5-3,1.38a6.11,6.11,0,0,1,2.85-1.86A6,6,0,0,1,160.71,365.28Z" style="fill:#fff"></path><path d="M211.27,360.63a22.15,22.15,0,0,1-2.62,2.32,25.66,25.66,0,0,1-2.63,2.32,8,8,0,0,1,2.28-2.71A8.31,8.31,0,0,1,211.27,360.63Z" style="fill:#fff"></path><path d="M219.78,363.26c.05.14-1.44.83-3.09,2s-2.83,2.3-2.94,2.19a10.83,10.83,0,0,1,6-4.17Z" style="fill:#fff"></path><path d="M228.28,368.36a24.42,24.42,0,0,1-3.55,1.18,26.39,26.39,0,0,1-3.56,1.14,14.38,14.38,0,0,1,7.11-2.32Z" style="fill:#fff"></path><path d="M227.35,375.32a28.38,28.38,0,0,1-3.71,1.31,30.72,30.72,0,0,1-3.71,1.32,10.34,10.34,0,0,1,3.54-1.81A10.08,10.08,0,0,1,227.35,375.32Z" style="fill:#fff"></path><path d="M224.72,383.05a15.78,15.78,0,0,1-2.7.85,15.73,15.73,0,0,1-2.71.85,5.4,5.4,0,0,1,2.55-1.35A5.33,5.33,0,0,1,224.72,383.05Z" style="fill:#fff"></path><path d="M226.87,388.88c0,.13-.77.59-1.83,1s-2,.68-2,.54.77-.59,1.83-1A4.49,4.49,0,0,1,226.87,388.88Z" style="fill:#fff"></path><path d="M232.75,390.6a9.24,9.24,0,0,1-2.66,1.62,9.53,9.53,0,0,1-2.9,1.16,9.78,9.78,0,0,1,2.66-1.62A9.53,9.53,0,0,1,232.75,390.6Z" style="fill:#fff"></path><path d="M236.79,330.24c0,.16-3.07.64-6.68,2s-6.29,2.94-6.37,2.81a6.49,6.49,0,0,1,1.69-1.19,27.73,27.73,0,0,1,4.51-2.11,28.56,28.56,0,0,1,4.8-1.31A6.59,6.59,0,0,1,236.79,330.24Z" style="fill:#fff"></path><path d="M243.59,335c0,.14-2.45.62-5.42,1.44s-5.35,1.65-5.4,1.51a19.91,19.91,0,0,1,5.26-2A19.3,19.3,0,0,1,243.59,335Z" style="fill:#fff"></path><path d="M249.77,340.41c0,.15-2.35.21-5.13.92s-4.88,1.76-4.95,1.62a15.7,15.7,0,0,1,10.08-2.54Z" style="fill:#fff"></path><path d="M257.5,347a37,37,0,0,1-4.79.26,37.29,37.29,0,0,1-4.8.18,16.65,16.65,0,0,1,4.78-.7A16,16,0,0,1,257.5,347Z" style="fill:#fff"></path><path d="M259.82,293.06c0,.16-2,.53-4.21,1.52s-3.89,2.16-4,2a12.74,12.74,0,0,1,8.19-3.56Z" style="fill:#fff"></path><path d="M272.19,296.79a23.27,23.27,0,0,1-3.56.3,25.55,25.55,0,0,1-3.56.28,12.73,12.73,0,0,1,7.12-.58Z" style="fill:#fff"></path><path d="M273.89,304a11,11,0,0,1-3.42,0,11.66,11.66,0,0,1-3.38-.49,11,11,0,0,1,3.42,0A11.58,11.58,0,0,1,273.89,304Z" style="fill:#fff"></path><path d="M273.89,310.22a15,15,0,0,1-5.56,0,15,15,0,0,1,5.56,0Z" style="fill:#fff"></path><path d="M117.74,334.19a9.08,9.08,0,0,1,1.31-4.28,8.94,8.94,0,0,1,2.84-3.46c.12.11-1.24,1.56-2.38,3.71S117.89,334.23,117.74,334.19Z" style="fill:#fff"></path><path d="M121.22,339.43a8.55,8.55,0,0,1,.35-2.91,8.41,8.41,0,0,1,.87-2.81,16.9,16.9,0,0,1-1.22,5.72Z" style="fill:#fff"></path><path d="M127,343.93c-.15,0-.12-.91,0-2s.42-1.92.56-1.9a4,4,0,0,1,0,2C127.39,343.1,127.14,344,127,343.93Z" style="fill:#fff"></path><path d="M193.34,296.15a22.07,22.07,0,0,1-3.78.69,22.46,22.46,0,0,1-3.8.55,10.7,10.7,0,0,1,3.72-1.06A10.93,10.93,0,0,1,193.34,296.15Z" style="fill:#fff"></path><path d="M193.34,301.72c0,.14-.77.36-1.75.49s-1.79.12-1.81,0,.76-.36,1.75-.49S193.32,301.58,193.34,301.72Z" style="fill:#fff"></path><path d="M217.92,266.31a8.74,8.74,0,0,1-1.75-3.67,8.88,8.88,0,0,1-.41-4.06c.16,0,.31,1.79.91,3.92S218.06,266.24,217.92,266.31Z" style="fill:#fff"></path><path d="M225.5,264.61c0,.06-.51-.13-1.13-.65a6.63,6.63,0,0,1-1.84-2.56,6.76,6.76,0,0,1-.48-3.11c.09-.81.3-1.27.36-1.25a8.77,8.77,0,0,0,3.09,7.57Z" style="fill:#fff"></path><path d="M234,258.12a12.17,12.17,0,0,1,1.53-9.9,43.57,43.57,0,0,0-1.32,4.86A42.59,42.59,0,0,0,234,258.12Z" style="fill:#fff"></path><path d="M242.64,254.1a6.36,6.36,0,0,1,1.57-5.87c.13.08-.6,1.25-1,2.87S242.79,254.09,242.64,254.1Z" style="fill:#fff"></path><path d="M252.22,254.56a6.31,6.31,0,0,1,.64-3.76,6.25,6.25,0,0,1,2.32-3c.12.11-1,1.36-1.84,3.24S252.38,254.57,252.22,254.56Z" style="fill:#fff"></path><path d="M263.07,251.47a3,3,0,0,1,.16-2.19c.41-1.18,1.13-1.92,1.23-1.83s-.36.91-.73,2S263.22,251.47,263.07,251.47Z" style="fill:#fff"></path><path d="M218.39,200.29s-.43-.35-.87-1.1a9,9,0,0,1-.92-6.58,2.78,2.78,0,0,1,.55-1.29,18.17,18.17,0,0,0-.2,4.6A18.53,18.53,0,0,0,218.39,200.29Z" style="fill:#fff"></path><path d="M224,197.66a7.63,7.63,0,0,1-1.1-6.34c.15,0,.05,1.47.36,3.21S224.09,197.6,224,197.66Z" style="fill:#fff"></path><path d="M234.15,194.11a6.89,6.89,0,0,1,.32-5.88c.14.06-.22,1.33-.3,2.93S234.3,194.07,234.15,194.11Z" style="fill:#fff"></path><path d="M243.26,191a11.25,11.25,0,0,1,2.35-8c.13.08-.81,1.72-1.45,3.94S243.42,191,243.26,191Z" style="fill:#fff"></path><path d="M252.38,189.62a7.8,7.8,0,0,1,.81-3.46,7.64,7.64,0,0,1,1.85-3,29.25,29.25,0,0,1-1.37,3.22A27.06,27.06,0,0,1,252.38,189.62Z" style="fill:#fff"></path><path d="M263.22,188.54a14.16,14.16,0,0,1,1.55-7,19.87,19.87,0,0,1-.71,3.5A19.54,19.54,0,0,1,263.22,188.54Z" style="fill:#fff"></path><path d="M273.74,192.87a9.92,9.92,0,0,1,.15-8.19c.15,0-.4,1.82-.44,4.09S273.89,192.83,273.74,192.87Z" style="fill:#fff"></path><path d="M271.89,226.42c-.16,0,.24-2.06.1-4.58s-.72-4.49-.57-4.54a9.86,9.86,0,0,1,1.09,4.52A9.7,9.7,0,0,1,271.89,226.42Z" style="fill:#fff"></path><path d="M257,227.82a23.38,23.38,0,0,0,.79-3.76,24.6,24.6,0,0,0-.33-3.82,7.21,7.21,0,0,1-.46,7.58Z" style="fill:#fff"></path><path d="M245.91,230.45c-.12-.09.33-.86.49-1.91s0-1.91.12-2,.58.85.39,2S246,230.54,245.91,230.45Z" style="fill:#fff"></path><path d="M248.51,290.58a15.62,15.62,0,0,0,.05-3.85,15.89,15.89,0,0,0-1.37-3.61c.05,0,.41.25.82.86a6.73,6.73,0,0,1,1.06,2.66,7,7,0,0,1-.08,2.86C248.8,290.21,248.57,290.6,248.51,290.58Z" style="fill:#fff"></path><path d="M257.66,287.34c-.15,0-.2-.81-.37-1.77s-.39-1.72-.25-1.79.59.67.76,1.7S257.8,287.36,257.66,287.34Z" style="fill:#fff"></path><path d="M266.47,286.41c-.14,0-.08-.58-.09-1.23s-.05-1.2.09-1.24.43.49.43,1.24S266.6,286.46,266.47,286.41Z" style="fill:#fff"></path><path d="M273.43,286.41c-.14-.05-.09-.49-.09-1s0-1,.09-1,.43.38.43,1S273.56,286.47,273.43,286.41Z" style="fill:#fff"></path><path d="M125.22,153.77c0,.15-11.33.26-25.29.26s-25.3-.11-25.3-.26,11.33-.26,25.3-.26S125.22,153.63,125.22,153.77Z" style="fill:#fff"></path><path d="M183.91,183.4c0,.14-10.07,3.18-22.57,6.8s-22.68,6.44-22.72,6.3,10.06-3.18,22.57-6.8S183.87,183.26,183.91,183.4Z" style="fill:#fff"></path><path d="M347.79,155.79c0,.15-11.55.27-25.8.27s-25.8-.12-25.8-.27,11.55-.26,25.8-.26S347.79,155.65,347.79,155.79Z" style="fill:#fff"></path><path d="M175.89,386.6a18.41,18.41,0,0,1-3.17-.18,17.69,17.69,0,0,1-3.16-.22,7,7,0,0,1,3.2-.3A6.82,6.82,0,0,1,175.89,386.6Z" style="fill:#fff"></path><path d="M178.46,381.26a24.2,24.2,0,0,1-3.46.2,22.74,22.74,0,0,1-3.46.19,8,8,0,0,1,3.43-.71A7.84,7.84,0,0,1,178.46,381.26Z" style="fill:#fff"></path><path d="M178.46,375.91c0,.15-.94.08-2-.14s-2-.5-1.92-.65.93-.07,2,.14S178.49,375.77,178.46,375.91Z" style="fill:#fff"></path><path d="M183,371c0,.14-.38.16-.76.05s-.66-.31-.62-.44.38-.17.76-.06S183,370.86,183,371Z" style="fill:#fff"></path><path d="M188.16,366.6c-.06.13-.38.1-.71-.06s-.54-.4-.48-.53.39-.1.71.06S188.23,366.47,188.16,366.6Z" style="fill:#fff"></path><path d="M196.85,354.16a11.4,11.4,0,0,1-4.54-1.58,5.76,5.76,0,0,1,2.35.54A5.7,5.7,0,0,1,196.85,354.16Z" style="fill:#fff"></path><path d="M200.61,349.42a6.82,6.82,0,0,1-2.56-.65,7.1,7.1,0,0,1-2.39-1.13,6.69,6.69,0,0,1,2.56.64A6.88,6.88,0,0,1,200.61,349.42Z" style="fill:#fff"></path><path d="M201.39,342.52c0,.14-.92,0-2-.32s-1.85-.68-1.81-.82.92,0,2,.32S201.43,342.38,201.39,342.52Z" style="fill:#fff"></path><path d="M301.23,352.27a13.61,13.61,0,0,1-5.13,1.24,7,7,0,0,1,2.51-.87A6.74,6.74,0,0,1,301.23,352.27Z" style="fill:#fff"></path><path d="M302.45,358.71c0,.14-.73.48-1.71.75s-1.81.38-1.85.24.73-.47,1.71-.74S302.41,358.57,302.45,358.71Z" style="fill:#fff"></path><path d="M305.61,364.65a8.13,8.13,0,0,1-2.16.56,7.34,7.34,0,0,1-2.19.42,3.87,3.87,0,0,1,2.08-.92A3.7,3.7,0,0,1,305.61,364.65Z" style="fill:#fff"></path><path d="M304.23,371.17c0,.14-.57.39-1.33.55s-1.41.19-1.44,0,.56-.38,1.33-.55S304.2,371,304.23,371.17Z" style="fill:#fff"></path><path d="M305.41,376.91c0,.14-.7.39-1.63.55s-1.7.18-1.73,0,.71-.39,1.64-.55S305.39,376.76,305.41,376.91Z" style="fill:#fff"></path><path d="M229.44,465.56l-.79,0h-2.24c-1,0-2.16,0-3.54-.11s-3-.13-4.69-.29-3.64-.3-5.67-.57-4.2-.56-6.48-.9c-4.54-.77-9.51-1.79-14.65-3.15s-9.94-3-14.26-4.6c-2.14-.84-4.19-1.62-6.06-2.46s-3.62-1.6-5.19-2.35-3-1.47-4.21-2.09-2.28-1.2-3.12-1.68l-1.95-1.11a4,4,0,0,1-.66-.42,4.19,4.19,0,0,1,.71.33l2,1c.86.46,1.92,1,3.16,1.6s2.64,1.32,4.23,2,3.31,1.51,5.21,2.28,3.92,1.58,6.06,2.41c4.31,1.58,9.11,3.16,14.23,4.55s10.07,2.39,14.59,3.18c2.27.35,4.42.71,6.45.94s3.92.47,5.65.63,3.3.26,4.67.37,2.57.16,3.54.19l2.24.11A3.73,3.73,0,0,1,229.44,465.56Z" style="fill:#fff"></path><path d="M247.31,464.75a29.78,29.78,0,0,1-7.76.67,15,15,0,0,1,3.86-.6A14.55,14.55,0,0,1,247.31,464.75Z" style="fill:#fff"></path></g></svg>